<?xml version="1.0" encoding="utf-8"?>
<!-- Generator: Adobe Illustrator 27.5.0, SVG Export Plug-In . SVG Version: 6.00 Build 0)  -->
<svg version="1.1" xmlns="http://www.w3.org/2000/svg" xmlns:xlink="http://www.w3.org/1999/xlink" x="0px" y="0px"
	 viewBox="0 0 500 500" style="enable-background:new 0 0 500 500;" xml:space="preserve">
<g id="BACKGROUND">
	<rect style="fill:#FFFFFF;" width="500" height="500"/>
	<g>
		<g>
			<g style="opacity:0.3;">
				<g>
					<g>
						<g>
							<path style="fill:#766BD8;" d="M151.907,351.054c-21.881-3.298-42.489-12.509-59.346-26.845
								c-21.769-18.515-41.279-48.714-26.287-93.589c28.407-85.026,157.329-99.14,216.024-79.52
								c93.283,31.182,136.027,157.378,7.821,198.265C258.247,359.53,186.629,356.287,151.907,351.054z"/>
						</g>
					</g>
				</g>
			</g>
			<g>
				<g>
					<g>
						<path style="opacity:0.3;fill:#766BD8;" d="M413.003,143.175c-16.741-15.79-45.262-18.322-59.893-0.059
							c-7.393,9.229-7.842,22.496-5.283,29.765c7.962,22.614,46.225,57.812,74.287,32.376
							C440.265,188.804,431.459,160.583,413.003,143.175z"/>
					</g>
				</g>
			</g>
			<g>
				<g>
					<g>
						<path style="fill:#766BD8;" d="M429.857,209.083c-0.084,0-0.169-0.029-0.238-0.088c-0.154-0.132-0.173-0.363-0.041-0.518
							c0.458-0.538,0.904-1.09,1.324-1.643c0.123-0.161,0.354-0.193,0.515-0.07c0.161,0.123,0.193,0.353,0.07,0.515
							c-0.429,0.564-0.883,1.127-1.35,1.675C430.064,209.039,429.96,209.083,429.857,209.083z M432.779,205.173
							c-0.069,0-0.138-0.019-0.2-0.059c-0.17-0.11-0.218-0.338-0.108-0.508c0.396-0.609,0.777-1.236,1.132-1.864
							c0.1-0.177,0.324-0.239,0.501-0.139c0.177,0.1,0.238,0.324,0.139,0.501c-0.363,0.641-0.751,1.281-1.156,1.902
							C433.017,205.114,432.9,205.173,432.779,205.173z M435.187,200.843c-0.052,0-0.105-0.011-0.155-0.035
							c-0.184-0.086-0.263-0.305-0.177-0.488c0.306-0.654,0.596-1.328,0.861-2.003c0.075-0.188,0.287-0.282,0.477-0.207
							c0.189,0.075,0.281,0.288,0.207,0.477c-0.272,0.689-0.567,1.377-0.88,2.045C435.457,200.765,435.325,200.843,435.187,200.843z
							 M436.967,196.22c-0.036,0-0.072-0.005-0.108-0.016c-0.194-0.06-0.303-0.265-0.243-0.459c0.212-0.69,0.405-1.396,0.576-2.102
							c0.048-0.198,0.248-0.318,0.443-0.271c0.197,0.048,0.318,0.246,0.271,0.443c-0.174,0.719-0.372,1.441-0.587,2.145
							C437.269,196.119,437.124,196.22,436.967,196.22z M438.097,191.4c-0.02,0-0.04-0.002-0.06-0.005
							c-0.2-0.033-0.336-0.222-0.302-0.422c0.118-0.71,0.217-1.437,0.296-2.161c0.022-0.202,0.203-0.347,0.405-0.326
							c0.202,0.022,0.347,0.203,0.326,0.405c-0.08,0.738-0.182,1.479-0.301,2.202C438.429,191.272,438.273,191.4,438.097,191.4z
							 M438.601,186.472c-0.005,0-0.01,0-0.016,0c-0.203-0.008-0.36-0.18-0.352-0.382c0.025-0.601,0.038-1.215,0.038-1.822
							c0-0.121-0.001-0.242-0.002-0.362c-0.001-0.203,0.162-0.368,0.365-0.37c0.001,0,0.002,0,0.003,0
							c0.202,0,0.366,0.163,0.367,0.365c0.001,0.122,0.001,0.245,0.001,0.368c0,0.618-0.013,1.241-0.039,1.853
							C438.959,186.318,438.797,186.472,438.601,186.472z M438.533,181.518c-0.192,0-0.353-0.149-0.366-0.343
							c-0.048-0.716-0.113-1.449-0.194-2.179c-0.022-0.202,0.123-0.383,0.324-0.406c0.2-0.024,0.383,0.123,0.405,0.324
							c0.083,0.741,0.149,1.485,0.197,2.211c0.014,0.202-0.139,0.377-0.342,0.391C438.55,181.518,438.541,181.518,438.533,181.518z
							 M437.962,176.594c-0.177,0-0.333-0.128-0.362-0.308c-0.116-0.711-0.249-1.436-0.395-2.155
							c-0.04-0.199,0.088-0.393,0.287-0.433c0.199-0.04,0.393,0.088,0.433,0.287c0.148,0.728,0.283,1.463,0.4,2.182
							c0.033,0.2-0.103,0.389-0.303,0.422C438.001,176.592,437.981,176.594,437.962,176.594z M436.955,171.737
							c-0.165,0-0.314-0.111-0.356-0.278c-0.176-0.701-0.367-1.414-0.568-2.118c-0.056-0.195,0.057-0.398,0.252-0.454
							c0.195-0.056,0.398,0.057,0.454,0.252c0.204,0.712,0.397,1.432,0.575,2.141c0.049,0.197-0.07,0.396-0.267,0.446
							C437.014,171.734,436.984,171.737,436.955,171.737z M435.572,166.974c-0.154,0-0.298-0.098-0.349-0.253
							c-0.225-0.684-0.467-1.382-0.718-2.073c-0.069-0.191,0.029-0.402,0.22-0.471c0.191-0.07,0.401,0.029,0.471,0.22
							c0.254,0.699,0.497,1.403,0.725,2.094c0.064,0.193-0.041,0.401-0.234,0.464C435.649,166.968,435.61,166.974,435.572,166.974z
							 M433.864,162.316c-0.145,0-0.283-0.087-0.341-0.23c-0.271-0.673-0.557-1.354-0.849-2.025
							c-0.081-0.186,0.004-0.402,0.19-0.483c0.186-0.081,0.402,0.004,0.483,0.19c0.295,0.677,0.583,1.365,0.857,2.044
							c0.076,0.188-0.015,0.402-0.203,0.478C433.956,162.307,433.909,162.316,433.864,162.316z M431.869,157.771
							c-0.137,0-0.269-0.077-0.332-0.21c-0.313-0.659-0.639-1.323-0.968-1.973c-0.092-0.181-0.019-0.402,0.162-0.494
							c0.181-0.092,0.402-0.019,0.493,0.162c0.332,0.655,0.66,1.324,0.976,1.99c0.087,0.183,0.009,0.402-0.174,0.489
							C431.975,157.76,431.922,157.771,431.869,157.771z M429.612,153.35c-0.13,0-0.256-0.069-0.323-0.191
							c-0.353-0.646-0.717-1.29-1.08-1.913c-0.102-0.175-0.043-0.4,0.133-0.502c0.175-0.102,0.4-0.043,0.502,0.133
							c0.366,0.629,0.733,1.278,1.089,1.93c0.097,0.178,0.032,0.401-0.146,0.499C429.732,153.336,429.672,153.35,429.612,153.35z
							 M427.098,149.068c-0.122,0-0.241-0.06-0.311-0.171c-0.739-1.169-1.205-1.823-1.209-1.829
							c-0.118-0.165-0.079-0.395,0.086-0.512c0.165-0.118,0.395-0.079,0.512,0.086c0.019,0.027,0.481,0.675,1.232,1.864
							c0.108,0.172,0.057,0.398-0.114,0.507C427.233,149.049,427.165,149.068,427.098,149.068z"/>
					</g>
				</g>
			</g>
			<g style="opacity:0.3;">
				<g>
					<g>
						<path style="fill:#766BD8;" d="M373.983,258.229c-1.648-19.806,13.318-36.616,33.022-34.025
							c11.737,1.543,17.395,8.448,20.925,14.089c10.982,17.553,11.534,59.033-21.175,58.91
							C383.726,297.117,375.8,280.065,373.983,258.229z"/>
					</g>
				</g>
			</g>
			<g>
				<g>
					<g>
						<path style="fill:#766BD8;" d="M154.405,147.92c-0.246,0-0.473-0.162-0.544-0.411c-0.086-0.301,0.088-0.614,0.389-0.7
							c0.712-0.203,1.091-0.3,1.106-0.304c0.302-0.078,0.611,0.106,0.689,0.409c0.077,0.303-0.106,0.611-0.409,0.689
							c-0.004,0.001-0.381,0.098-1.076,0.296C154.509,147.913,154.456,147.92,154.405,147.92z"/>
					</g>
				</g>
				<g>
					<g>
						<path style="fill:#766BD8;" d="M67.014,211.075c-0.103,0-0.206-0.028-0.299-0.086c-0.265-0.166-0.346-0.515-0.18-0.78
							c0.408-0.652,0.829-1.312,1.252-1.962c0.171-0.262,0.521-0.336,0.784-0.165c0.262,0.171,0.336,0.522,0.165,0.784
							c-0.42,0.643-0.837,1.297-1.241,1.943C67.387,210.981,67.202,211.075,67.014,211.075z M70.199,206.24
							c-0.111,0-0.224-0.033-0.322-0.101c-0.257-0.178-0.321-0.531-0.143-0.788c0.439-0.632,0.891-1.271,1.345-1.899
							c0.183-0.253,0.537-0.31,0.791-0.128c0.254,0.183,0.311,0.537,0.127,0.791c-0.449,0.622-0.898,1.255-1.332,1.882
							C70.555,206.155,70.379,206.24,70.199,206.24z M73.612,201.563c-0.12,0-0.241-0.038-0.344-0.117
							c-0.248-0.19-0.295-0.546-0.105-0.794c0.467-0.61,0.949-1.227,1.432-1.834c0.195-0.244,0.551-0.285,0.796-0.09
							c0.245,0.195,0.285,0.551,0.09,0.796c-0.479,0.602-0.956,1.213-1.419,1.817C73.95,201.486,73.782,201.563,73.612,201.563z
							 M77.238,197.048c-0.129,0-0.258-0.044-0.364-0.133c-0.239-0.201-0.27-0.559-0.069-0.798c0.495-0.589,1.005-1.183,1.514-1.767
							c0.205-0.235,0.563-0.26,0.799-0.054c0.236,0.206,0.26,0.563,0.054,0.799c-0.505,0.579-1.009,1.168-1.5,1.751
							C77.559,196.98,77.399,197.048,77.238,197.048z M81.064,192.701c-0.137,0-0.275-0.049-0.383-0.15
							c-0.23-0.212-0.245-0.57-0.033-0.8c0.523-0.568,1.058-1.139,1.59-1.698c0.216-0.226,0.574-0.235,0.801-0.019
							c0.226,0.216,0.235,0.574,0.019,0.801c-0.528,0.554-1.058,1.121-1.577,1.684C81.369,192.64,81.217,192.701,81.064,192.701z
							 M85.076,188.525c-0.145,0-0.29-0.055-0.401-0.166c-0.221-0.221-0.22-0.58,0.001-0.801c0.544-0.542,1.102-1.09,1.66-1.629
							c0.225-0.217,0.584-0.211,0.801,0.014c0.217,0.225,0.211,0.583-0.014,0.801c-0.553,0.534-1.108,1.078-1.647,1.616
							C85.365,188.47,85.221,188.525,85.076,188.525z M89.261,184.522c-0.153,0-0.306-0.062-0.417-0.183
							c-0.211-0.23-0.196-0.589,0.034-0.8c0.566-0.52,1.146-1.044,1.726-1.559c0.233-0.208,0.591-0.187,0.799,0.047
							c0.208,0.234,0.187,0.592-0.047,0.799c-0.575,0.511-1.151,1.032-1.712,1.547C89.535,184.473,89.397,184.522,89.261,184.522z
							 M93.605,180.691c-0.161,0-0.32-0.068-0.432-0.2c-0.202-0.239-0.173-0.596,0.066-0.798c0.587-0.497,1.188-0.999,1.786-1.49
							c0.242-0.198,0.599-0.163,0.797,0.078c0.198,0.242,0.163,0.598-0.078,0.797c-0.593,0.487-1.19,0.985-1.772,1.478
							C93.864,180.647,93.734,180.691,93.605,180.691z M98.095,177.033c-0.168,0-0.334-0.074-0.446-0.217
							c-0.193-0.246-0.15-0.602,0.096-0.795c0.605-0.474,1.224-0.952,1.841-1.421c0.249-0.189,0.604-0.141,0.793,0.108
							c0.189,0.249,0.141,0.604-0.108,0.793c-0.612,0.465-1.227,0.94-1.828,1.41C98.34,176.993,98.217,177.033,98.095,177.033z
							 M102.72,173.545c-0.175,0-0.348-0.081-0.459-0.234c-0.184-0.253-0.127-0.607,0.126-0.791
							c0.621-0.451,1.257-0.906,1.892-1.352c0.256-0.18,0.609-0.119,0.789,0.137c0.18,0.256,0.119,0.609-0.137,0.789
							c-0.63,0.443-1.262,0.895-1.878,1.343C102.952,173.51,102.835,173.545,102.72,173.545z M107.468,170.227
							c-0.182,0-0.361-0.088-0.47-0.25c-0.175-0.259-0.106-0.611,0.154-0.786c0.638-0.43,1.29-0.862,1.938-1.285
							c0.262-0.171,0.613-0.097,0.784,0.165c0.171,0.262,0.097,0.613-0.165,0.784c-0.643,0.42-1.291,0.849-1.925,1.276
							C107.687,170.196,107.577,170.227,107.468,170.227z M112.33,167.076c-0.189,0-0.374-0.095-0.481-0.267
							c-0.166-0.265-0.085-0.615,0.18-0.78c0.652-0.407,1.318-0.816,1.981-1.218c0.268-0.162,0.616-0.076,0.778,0.191
							c0.162,0.268,0.076,0.616-0.191,0.778c-0.658,0.399-1.32,0.806-1.967,1.21C112.536,167.049,112.432,167.076,112.33,167.076z
							 M117.295,164.091c-0.195,0-0.386-0.101-0.491-0.283c-0.157-0.271-0.064-0.617,0.206-0.774
							c0.666-0.386,1.346-0.773,2.02-1.152c0.273-0.153,0.618-0.056,0.771,0.217c0.153,0.273,0.056,0.618-0.216,0.771
							c-0.67,0.376-1.345,0.761-2.007,1.144C117.489,164.067,117.391,164.091,117.295,164.091z M122.356,161.271
							c-0.202,0-0.397-0.108-0.499-0.299c-0.148-0.275-0.044-0.619,0.231-0.767c0.681-0.365,1.373-0.731,2.056-1.086
							c0.277-0.144,0.619-0.036,0.764,0.241c0.144,0.278,0.036,0.619-0.241,0.764c-0.679,0.353-1.366,0.716-2.043,1.079
							C122.538,161.249,122.446,161.271,122.356,161.271z M127.505,158.613c-0.208,0-0.409-0.115-0.508-0.315
							c-0.139-0.28-0.025-0.62,0.256-0.759c0.686-0.34,1.389-0.684,2.089-1.02c0.282-0.135,0.62-0.017,0.756,0.265
							c0.135,0.282,0.017,0.62-0.265,0.756c-0.696,0.335-1.395,0.676-2.076,1.014C127.675,158.594,127.59,158.613,127.505,158.613z
							 M132.736,156.119c-0.215,0-0.42-0.123-0.515-0.331c-0.13-0.284-0.005-0.62,0.279-0.751c0.705-0.322,1.418-0.643,2.121-0.954
							c0.286-0.127,0.62,0.003,0.747,0.289c0.126,0.286-0.003,0.62-0.289,0.747c-0.698,0.309-1.407,0.628-2.107,0.948
							C132.895,156.103,132.815,156.119,132.736,156.119z M138.044,153.791c-0.221,0-0.431-0.131-0.522-0.347
							c-0.121-0.288,0.015-0.62,0.303-0.741c0.718-0.301,1.441-0.6,2.15-0.886c0.29-0.117,0.62,0.023,0.737,0.313
							c0.117,0.29-0.023,0.62-0.313,0.737c-0.705,0.285-1.424,0.581-2.137,0.881C138.191,153.777,138.117,153.791,138.044,153.791z
							 M143.425,151.635c-0.228,0-0.443-0.139-0.529-0.365c-0.111-0.292,0.035-0.619,0.327-0.731c0.723-0.276,1.457-0.55,2.18-0.815
							c0.294-0.108,0.619,0.044,0.726,0.337c0.107,0.294-0.044,0.619-0.337,0.726c-0.718,0.263-1.447,0.535-2.165,0.809
							C143.561,151.623,143.492,151.635,143.425,151.635z M148.879,149.664c-0.236,0-0.456-0.148-0.536-0.384
							c-0.101-0.296,0.057-0.618,0.353-0.719c0.747-0.254,1.491-0.501,2.212-0.733c0.298-0.096,0.617,0.068,0.713,0.366
							c0.096,0.298-0.068,0.617-0.366,0.713c-0.715,0.23-1.453,0.475-2.194,0.727C149.001,149.655,148.94,149.664,148.879,149.664z"
							/>
					</g>
				</g>
				<g>
					<g>
						<path style="fill:#766BD8;" d="M64.668,214.996c-0.095,0-0.192-0.024-0.281-0.075c-0.271-0.155-0.366-0.501-0.21-0.773
							c0.189-0.33,0.379-0.658,0.57-0.985c0.158-0.27,0.505-0.361,0.775-0.203c0.27,0.158,0.361,0.505,0.203,0.775
							c-0.189,0.324-0.378,0.649-0.565,0.975C65.055,214.893,64.864,214.996,64.668,214.996z"/>
					</g>
				</g>
			</g>
		</g>
		<g>
			<g>
				<g>
					<g>
						<g>
							<g>
								<g>
									<g>
										<path style="fill:#766BD8;" d="M33.473,206.732c-0.071,0-0.143-0.014-0.213-0.042l-2.582-1.05
											c-0.139-0.057-0.25-0.166-0.308-0.305c-0.058-0.138-0.059-0.294-0.003-0.433l0.812-1.996
											c-0.457-0.313-0.871-0.678-1.237-1.091l-1.958,0.825c-0.288,0.122-0.62-0.014-0.742-0.302l-1.083-2.568
											c-0.058-0.138-0.059-0.294-0.003-0.433c0.057-0.139,0.166-0.25,0.305-0.308l1.827-0.77
											c-0.069-0.48-0.086-0.967-0.05-1.456l-1.795-0.73c-0.139-0.057-0.25-0.166-0.308-0.304
											c-0.058-0.138-0.059-0.294-0.003-0.434l1.05-2.582c0.057-0.139,0.166-0.25,0.305-0.308
											c0.138-0.059,0.294-0.059,0.434-0.003l1.699,0.691c0.365-0.48,0.791-0.906,1.271-1.273l-0.77-1.826
											c-0.122-0.288,0.014-0.62,0.302-0.742l2.569-1.083c0.138-0.058,0.294-0.059,0.433-0.003
											c0.139,0.057,0.25,0.166,0.308,0.305l0.825,1.958c0.324-0.023,0.649-0.023,0.972,0l0.854-2.1
											c0.118-0.29,0.448-0.429,0.738-0.311l2.582,1.05c0.139,0.057,0.25,0.166,0.309,0.305c0.058,0.138,0.059,0.294,0.003,0.433
											l-0.815,2.004c0.48,0.365,0.906,0.791,1.274,1.271l1.826-0.77c0.138-0.058,0.294-0.059,0.434-0.003
											c0.139,0.057,0.25,0.166,0.308,0.304l1.083,2.568c0.122,0.288-0.014,0.62-0.302,0.742l-1.957,0.825
											c0.033,0.443,0.023,0.882-0.029,1.316l2.004,0.815c0.29,0.118,0.429,0.448,0.311,0.738l-1.05,2.582
											c-0.057,0.139-0.166,0.25-0.305,0.308c-0.138,0.058-0.294,0.059-0.433,0.003l-2.1-0.855
											c-0.21,0.248-0.436,0.481-0.679,0.696l0.825,1.957c0.122,0.288-0.014,0.62-0.302,0.742l-2.568,1.083
											c-0.138,0.058-0.294,0.059-0.433,0.003c-0.139-0.057-0.25-0.166-0.308-0.305l-0.77-1.826
											c-0.367,0.053-0.738,0.075-1.109,0.068l-0.922,2.266C33.908,206.598,33.696,206.732,33.473,206.732z M31.629,204.804
											l1.533,0.623l0.86-2.114c0.093-0.229,0.326-0.371,0.571-0.351c0.556,0.046,1.115,0.01,1.66-0.109
											c0.266-0.058,0.536,0.082,0.642,0.333l0.726,1.722l1.525-0.643l-0.769-1.822c-0.099-0.236-0.028-0.51,0.174-0.667
											c0.406-0.316,0.768-0.688,1.076-1.104c0.154-0.208,0.429-0.285,0.669-0.188l1.969,0.801l0.623-1.533l-1.895-0.77
											c-0.25-0.102-0.394-0.366-0.343-0.632c0.115-0.6,0.131-1.221,0.045-1.846c-0.035-0.254,0.105-0.499,0.341-0.598
											l1.822-0.769l-0.643-1.525l-1.722,0.726c-0.251,0.106-0.542,0.018-0.692-0.209c-0.427-0.644-0.968-1.185-1.609-1.607
											c-0.226-0.149-0.315-0.436-0.213-0.686l0.771-1.895l-1.533-0.623l-0.801,1.969c-0.097,0.24-0.344,0.382-0.602,0.348
											c-0.511-0.07-1.03-0.071-1.541,0c-0.254,0.034-0.499-0.105-0.599-0.341l-0.768-1.823l-1.525,0.643l0.726,1.722
											c0.106,0.251,0.018,0.542-0.209,0.692c-0.644,0.427-1.184,0.968-1.607,1.609c-0.149,0.226-0.436,0.315-0.686,0.213
											l-1.59-0.647l-0.624,1.533l1.665,0.677c0.24,0.097,0.383,0.345,0.348,0.601c-0.091,0.664-0.067,1.326,0.072,1.969
											c0.058,0.266-0.083,0.536-0.333,0.641l-1.722,0.726l0.643,1.525l1.823-0.768c0.236-0.099,0.51-0.028,0.667,0.174
											c0.443,0.569,0.985,1.043,1.613,1.411c0.243,0.142,0.344,0.441,0.238,0.702L31.629,204.804z M35.053,200.403
											c-0.399,0-0.797-0.077-1.178-0.232c-0.773-0.314-1.377-0.91-1.701-1.677c-0.669-1.585,0.077-3.42,1.663-4.089
											c1.585-0.669,3.42,0.077,4.089,1.663c0.324,0.767,0.329,1.615,0.014,2.388c-0.314,0.773-0.91,1.377-1.677,1.7l0,0
											C35.874,200.32,35.463,200.403,35.053,200.403z M35.047,195.292c-0.257,0-0.518,0.05-0.77,0.156
											c-1.01,0.426-1.486,1.595-1.06,2.605c0.206,0.488,0.591,0.868,1.084,1.068c0.493,0.201,1.033,0.197,1.522-0.009l0,0
											c0.488-0.206,0.868-0.591,1.068-1.083c0.2-0.493,0.197-1.033-0.009-1.522C36.563,195.749,35.824,195.292,35.047,195.292z"
											/>
									</g>
								</g>
							</g>
						</g>
					</g>
				</g>
			</g>
			<g>
				<path style="fill:#766BD8;" d="M48.724,233.551h-7.436c-3.702,0-6.714-3.012-6.714-6.714v-16.395
					c0-0.313,0.254-0.566,0.566-0.566c0.313,0,0.566,0.254,0.566,0.566v16.395c0,3.078,2.504,5.582,5.582,5.582h7.436
					c0.313,0,0.566,0.254,0.566,0.566S49.037,233.551,48.724,233.551z"/>
			</g>
			<g>
				<path style="fill:#766BD8;" d="M452.928,292.415h-8.565c-3.409,0-6.181-2.773-6.181-6.181v-4.213
					c0-2.784-2.265-5.049-5.049-5.049h-15.688c-0.313,0-0.566-0.253-0.566-0.566s0.254-0.566,0.566-0.566h15.688
					c3.408,0,6.181,2.773,6.181,6.181v4.213c0,2.784,2.265,5.049,5.049,5.049h8.565c0.313,0,0.566,0.254,0.566,0.566
					C453.494,292.162,453.241,292.415,452.928,292.415z"/>
			</g>
			<g>
				<g>
					<g>
						<path style="fill:#766BD8;" d="M465.468,299.341c-4.656,0-8.444-3.788-8.444-8.444s3.788-8.444,8.444-8.444
							c4.656,0,8.444,3.788,8.444,8.444S470.124,299.341,465.468,299.341z M465.468,283.637c-4.003,0-7.26,3.257-7.26,7.26
							c0,4.003,3.257,7.26,7.26,7.26c4.003,0,7.26-3.257,7.26-7.26C472.728,286.894,469.471,283.637,465.468,283.637z"/>
					</g>
				</g>
				<g>
					<g>
						<path style="fill:#766BD8;" d="M463.166,294.861c-0.011,0-0.022,0-0.032-0.001c-0.168-0.009-0.324-0.089-0.429-0.22
							l-1.532-1.909c-0.204-0.255-0.164-0.627,0.091-0.832c0.255-0.204,0.628-0.163,0.832,0.091l1.119,1.394l6.277-6.277
							c0.231-0.231,0.605-0.231,0.837,0c0.231,0.231,0.231,0.606,0,0.837l-6.744,6.744
							C463.473,294.799,463.322,294.861,463.166,294.861z"/>
					</g>
				</g>
			</g>
		</g>
	</g>
</g>
<g id="OBJECTS_1_">
	<g style="opacity:0.3;">
		<g>
			<path style="fill:#766BD8;" d="M474.507,393.445c0,4.381-100.515,7.932-224.507,7.932s-224.508-3.551-224.508-7.932
				c0-4.38,100.516-7.931,224.508-7.931S474.507,389.064,474.507,393.445z"/>
		</g>
	</g>
	<g>
		<g>
			<g>
				<g>
					<g>
						<g>
							<path style="fill:#766BD8;" d="M43.723,339.085c0,0-9.903-14.273-6.189-23.7c3.993-10.134,11.858-4.42,10.474,8.317
								C47.06,332.437,43.723,339.085,43.723,339.085z"/>
						</g>
					</g>
				</g>
				<g>
					<g>
						<g>
							<g>
								<path style="fill:#131637;" d="M65.961,393.056c-4.448-6.473-8.501-13.215-11.851-20.326
									c-4.473-9.492-7.508-19.56-9.182-29.914c-1.014-6.269-1.549-12.603-1.814-18.945c-0.04-0.947-1.521-0.983-1.481-0.027
									c0.461,11.042,1.779,22.083,4.82,32.732c3.011,10.543,7.681,20.508,13.414,29.836c1.411,2.297,2.886,4.553,4.404,6.78
									L65.961,393.056z"/>
							</g>
						</g>
					</g>
				</g>
				<g>
					<g>
						<g>
							<path style="fill:#766BD8;" d="M47.512,357.511c0,0-17.135-2.859-21.299-12.096c-4.476-9.93,5.104-11.58,13.266-1.704
								C45.076,350.482,47.512,357.511,47.512,357.511z"/>
						</g>
					</g>
				</g>
				<g>
					<g>
						<g>
							<path style="fill:#766BD8;" d="M51.345,367.861c0,0,13.36-11.104,12.302-21.181c-1.137-10.833-10.243-7.43-12.317,5.213
								C49.909,360.562,51.345,367.861,51.345,367.861z"/>
						</g>
					</g>
				</g>
				<g>
					<g>
						<g>
							<path style="fill:#766BD8;" d="M59.738,383.917c0,0,13.36-11.104,12.302-21.181c-1.137-10.833-10.243-7.43-12.317,5.213
								C58.302,376.618,59.738,383.917,59.738,383.917z"/>
						</g>
					</g>
				</g>
				<g>
					<g>
						<g>
							<path style="fill:#766BD8;" d="M55.725,377.986c0,0-17.294,1.648-23.695-6.206c-6.882-8.443,1.951-12.503,12.38-5.061
								C51.561,371.822,55.725,377.986,55.725,377.986z"/>
						</g>
					</g>
				</g>
			</g>
		</g>
		<g>
			<g>
				<g>
					<g>
						<g>
							<path style="fill:#766BD8;" d="M453.283,339.262c0,0,9.904-14.273,6.189-23.7c-3.993-10.134-11.858-4.42-10.474,8.317
								C449.946,332.614,453.283,339.262,453.283,339.262z"/>
						</g>
					</g>
				</g>
				<g>
					<g>
						<g>
							<g>
								<path style="fill:#131637;" d="M431.045,393.233c4.448-6.473,8.501-13.215,11.851-20.326
									c4.472-9.492,7.508-19.56,9.182-29.914c1.014-6.269,1.549-12.603,1.814-18.945c0.039-0.947,1.521-0.983,1.481-0.027
									c-0.461,11.042-1.779,22.083-4.82,32.732c-3.011,10.543-7.682,20.508-13.414,29.836c-1.411,2.297-2.886,4.553-4.404,6.78
									L431.045,393.233z"/>
							</g>
						</g>
					</g>
				</g>
				<g>
					<g>
						<g>
							<path style="fill:#766BD8;" d="M449.494,357.688c0,0,17.135-2.859,21.299-12.096c4.476-9.93-5.104-11.58-13.266-1.704
								C451.93,350.659,449.494,357.688,449.494,357.688z"/>
						</g>
					</g>
				</g>
				<g>
					<g>
						<g>
							<path style="fill:#766BD8;" d="M445.661,368.038c0,0-13.36-11.104-12.302-21.181c1.137-10.833,10.243-7.43,12.317,5.213
								C447.098,360.739,445.661,368.038,445.661,368.038z"/>
						</g>
					</g>
				</g>
				<g>
					<g>
						<g>
							<path style="fill:#766BD8;" d="M437.268,384.094c0,0-13.36-11.104-12.302-21.181c1.137-10.833,10.243-7.43,12.317,5.213
								C438.704,376.795,437.268,384.094,437.268,384.094z"/>
						</g>
					</g>
				</g>
				<g>
					<g>
						<g>
							<path style="fill:#766BD8;" d="M441.281,378.163c0,0,17.294,1.648,23.695-6.206c6.882-8.443-1.951-12.503-12.38-5.061
								C445.445,371.999,441.281,378.163,441.281,378.163z"/>
						</g>
					</g>
				</g>
			</g>
		</g>
	</g>
	<g>
		<path style="opacity:0.3;fill:#766BD8;" d="M334.761,119.642c0,1.024-0.417,1.957-1.097,2.633
			c-0.671,0.68-1.604,1.097-2.628,1.097h-79.728c-2.048,0-3.725-1.678-3.725-3.73c0-1.024,0.417-1.957,1.097-2.632
			c0.671-0.68,1.605-1.097,2.628-1.097h3.768c1.488-3.459,4.925-5.876,8.926-5.876c2.693,0,5.127,1.097,6.891,2.865
			c2.349-3.983,6.68-6.659,11.64-6.659c1.364,0,2.676,0.207,3.915,0.581c2.594-4.878,7.722-8.199,13.632-8.199
			c7.098,0,13.069,4.792,14.871,11.313c1.307-0.654,2.783-1.028,4.349-1.028c4.426,0,8.16,2.955,9.335,7.003h2.401
			C333.084,115.912,334.761,117.59,334.761,119.642z"/>
		<path style="opacity:0.3;fill:#766BD8;" d="M79.854,142.931c0,0.642,0.262,1.228,0.688,1.652c0.421,0.427,1.007,0.688,1.649,0.688
			h50.027c1.285,0,2.338-1.053,2.338-2.34c0-0.643-0.262-1.228-0.688-1.652c-0.421-0.427-1.007-0.688-1.649-0.688h-2.365
			c-0.934-2.17-3.091-3.687-5.601-3.687c-1.69,0-3.217,0.688-4.324,1.798c-1.474-2.499-4.192-4.178-7.304-4.178
			c-0.856,0-1.679,0.13-2.456,0.364c-1.628-3.061-4.845-5.145-8.554-5.145c-4.454,0-8.2,3.007-9.331,7.099
			c-0.82-0.41-1.746-0.645-2.729-0.645c-2.778,0-5.12,1.854-5.857,4.394h-1.506C80.907,140.591,79.854,141.644,79.854,142.931z"/>
	</g>
	<g>
		<g>
			<g>
				<g>
					<g>
						<g>
							<g>
								<g>
									<linearGradient id="SVGID_1_" gradientUnits="userSpaceOnUse" x1="218.1091" y1="365.7829" x2="220.6658" y2="128.0165">
										<stop  offset="0" style="stop-color:#2E1685"/>
										<stop  offset="0.1657" style="stop-color:#331C8A"/>
										<stop  offset="0.3793" style="stop-color:#402C9A"/>
										<stop  offset="0.6189" style="stop-color:#5746B4"/>
										<stop  offset="0.8761" style="stop-color:#766BD8"/>
										<stop  offset="0.8771" style="stop-color:#766BD8"/>
									</linearGradient>
									<rect x="199.924" y="197.222" style="fill:url(#SVGID_1_);" width="38.299" height="157.767"/>
								</g>
							</g>
						</g>
					</g>
				</g>
			</g>
		</g>
		<g>
			<g>
				<g>
					<g>
						<g>
							
								<linearGradient id="SVGID_00000083799732510456258110000006792201861974337180_" gradientUnits="userSpaceOnUse" x1="156.4813" y1="371.8259" x2="156.4813" y2="217.409">
								<stop  offset="0" style="stop-color:#2E1685"/>
								<stop  offset="0.1657" style="stop-color:#331C8A"/>
								<stop  offset="0.3793" style="stop-color:#402C9A"/>
								<stop  offset="0.6189" style="stop-color:#5746B4"/>
								<stop  offset="0.8761" style="stop-color:#766BD8"/>
								<stop  offset="0.8771" style="stop-color:#766BD8"/>
							</linearGradient>
							
								<rect x="137.332" y="249.744" style="fill:url(#SVGID_00000083799732510456258110000006792201861974337180_);" width="38.299" height="105.245"/>
						</g>
					</g>
				</g>
			</g>
		</g>
		<g>
			<g>
				<g>
					<g>
						<g>
							<g>
								<g>
									
										<linearGradient id="SVGID_00000134947768692564633720000005126331628756222396_" gradientUnits="userSpaceOnUse" x1="281.6672" y1="359.4573" x2="281.6672" y2="115.2998">
										<stop  offset="0" style="stop-color:#2E1685"/>
										<stop  offset="0.1657" style="stop-color:#331C8A"/>
										<stop  offset="0.3793" style="stop-color:#402C9A"/>
										<stop  offset="0.6189" style="stop-color:#5746B4"/>
										<stop  offset="0.8761" style="stop-color:#766BD8"/>
										<stop  offset="0.8771" style="stop-color:#766BD8"/>
									</linearGradient>
									
										<rect x="262.518" y="152.11" style="fill:url(#SVGID_00000134947768692564633720000005126331628756222396_);" width="38.299" height="202.88"/>
								</g>
							</g>
						</g>
					</g>
				</g>
			</g>
		</g>
		<g>
			<g>
				<g>
					<g>
						<g>
							<g>
								
									<linearGradient id="SVGID_00000004527571045993089910000013808907243504318644_" gradientUnits="userSpaceOnUse" x1="341.7095" y1="387.534" x2="345.5443" y2="56.4514">
									<stop  offset="0" style="stop-color:#2E1685"/>
									<stop  offset="0.1657" style="stop-color:#331C8A"/>
									<stop  offset="0.3793" style="stop-color:#402C9A"/>
									<stop  offset="0.6189" style="stop-color:#5746B4"/>
									<stop  offset="0.8761" style="stop-color:#766BD8"/>
									<stop  offset="0.8771" style="stop-color:#766BD8"/>
								</linearGradient>
								
									<rect x="324.369" y="107.68" style="fill:url(#SVGID_00000004527571045993089910000013808907243504318644_);" width="38.299" height="247.31"/>
							</g>
						</g>
					</g>
				</g>
			</g>
		</g>
		
			<linearGradient id="SVGID_00000044153098282718058200000004101098902252919991_" gradientUnits="userSpaceOnUse" x1="344.1648" y1="225.62" x2="342.8865" y2="326.6064">
			<stop  offset="0" style="stop-color:#2E1685"/>
			<stop  offset="1" style="stop-color:#766BD8"/>
		</linearGradient>
		<path style="fill:url(#SVGID_00000044153098282718058200000004101098902252919991_);" d="M324.369,198.331V354.99h38.299V189.922
			C355.073,188.891,341.725,189.237,324.369,198.331z"/>
		
			<linearGradient id="SVGID_00000151519726488781798610000015736053175700062116_" gradientUnits="userSpaceOnUse" x1="282.6144" y1="224.841" x2="281.3362" y2="325.8275">
			<stop  offset="0" style="stop-color:#2E1685"/>
			<stop  offset="0.1985" style="stop-color:#37208F"/>
			<stop  offset="0.5404" style="stop-color:#4E3CAA"/>
			<stop  offset="0.9823" style="stop-color:#7469D6"/>
			<stop  offset="1" style="stop-color:#766BD8"/>
		</linearGradient>
		<path style="fill:url(#SVGID_00000151519726488781798610000015736053175700062116_);" d="M294.185,220.746
			c-8.934,8.577-19.738,16.559-31.667,23.606V354.99h38.299V214.697C298.643,216.575,296.431,218.589,294.185,220.746z"/>
		
			<linearGradient id="SVGID_00000042711021685605082920000011678531072651980197_" gradientUnits="userSpaceOnUse" x1="219.7848" y1="256.0681" x2="218.5065" y2="357.0546">
			<stop  offset="0" style="stop-color:#2E1685"/>
			<stop  offset="1" style="stop-color:#766BD8"/>
		</linearGradient>
		<path style="fill:url(#SVGID_00000042711021685605082920000011678531072651980197_);" d="M238.223,256.737
			c-12.398,5.406-25.378,9.776-38.299,12.818v85.435h38.299V256.737z"/>
		
			<linearGradient id="SVGID_00000101087849852644388700000010646682163988189586_" gradientUnits="userSpaceOnUse" x1="157.3909" y1="267.5965" x2="155.5636" y2="359.8807">
			<stop  offset="0" style="stop-color:#2E1685"/>
			<stop  offset="1" style="stop-color:#766BD8"/>
		</linearGradient>
		<path style="fill:url(#SVGID_00000101087849852644388700000010646682163988189586_);" d="M137.332,272.079v82.911h38.299v-81.328
			C162.069,275.005,149.038,274.598,137.332,272.079z"/>
	</g>
	<g>
		<g>
			<g>
				
					<linearGradient id="SVGID_00000057861270996940918610000005980801774002621612_" gradientUnits="userSpaceOnUse" x1="96.6419" y1="273.8142" x2="373.8345" y2="273.8142">
					<stop  offset="0" style="stop-color:#B12413"/>
					<stop  offset="1" style="stop-color:#FF563D"/>
				</linearGradient>
				<polygon style="fill:url(#SVGID_00000057861270996940918610000005980801774002621612_);" points="360.409,216.868 
					322.807,254.47 289.223,220.887 214.989,295.121 166.922,247.054 96.642,317.334 110.068,330.76 166.922,273.906 
					214.989,321.973 289.223,247.739 322.807,281.322 373.834,230.294 				"/>
			</g>
		</g>
		<polygon style="fill:#B12413;" points="364.938,239.19 348.085,229.191 353.212,224.065 366.379,237.75 		"/>
		<g>
			<g>
				
					<linearGradient id="SVGID_00000160150917450773702650000011574544818064734879_" gradientUnits="userSpaceOnUse" x1="349.878" y1="244.6635" x2="382.3702" y2="204.7018">
					<stop  offset="0" style="stop-color:#B12413"/>
					<stop  offset="1" style="stop-color:#FF563D"/>
				</linearGradient>
				<polygon style="fill:url(#SVGID_00000160150917450773702650000011574544818064734879_);" points="340.9,211.267 
					380.065,251.975 391.007,202.254 				"/>
			</g>
		</g>
	</g>
	<g>
		<g>
			<g>
				
					<linearGradient id="SVGID_00000017489572853848801300000008223938893077256633_" gradientUnits="userSpaceOnUse" x1="362.1779" y1="388.1337" x2="362.1779" y2="376.7858">
					<stop  offset="0" style="stop-color:#DA8928"/>
					<stop  offset="1" style="stop-color:#EECD5A"/>
				</linearGradient>
				<path style="fill:url(#SVGID_00000017489572853848801300000008223938893077256633_);" d="M322.237,378.263v8.709
					c0,1.837,17.882,3.326,39.941,3.326c22.059,0,39.941-1.49,39.941-3.326v-8.709H322.237z"/>
				<g>
					<path style="fill:#F4D793;" d="M348.42,378.263h-0.488v11.817c0.164,0.005,0.323,0.011,0.488,0.016V378.263z"/>
					<path style="fill:#F4D793;" d="M343.752,378.263h-0.488v11.639c0.161,0.007,0.326,0.014,0.488,0.021V378.263z"/>
					<path style="fill:#F4D793;" d="M353.087,378.263H352.6v11.939c0.162,0.003,0.325,0.006,0.488,0.009V378.263z"/>
					<path style="fill:#F4D793;" d="M357.755,378.263h-0.488v12.01c0.163,0.002,0.324,0.004,0.488,0.005V378.263z"/>
					<path style="fill:#F4D793;" d="M339.085,378.263h-0.488v11.394c0.161,0.01,0.325,0.019,0.488,0.029V378.263z"/>
					<path style="fill:#F4D793;" d="M335.067,378.263h-0.488v11.112c0.162,0.013,0.323,0.026,0.488,0.039V378.263z"/>
					<path style="fill:#F4D793;" d="M323.473,387.796c0.149,0.049,0.314,0.097,0.488,0.145v-9.677h-0.488V387.796z"/>
					<path style="fill:#F4D793;" d="M325.851,378.263h-0.488v10.001c0.154,0.03,0.323,0.06,0.488,0.09V378.263z"/>
					<path style="fill:#F4D793;" d="M328.214,378.263h-0.488v10.392c0.161,0.023,0.322,0.046,0.488,0.068V378.263z"/>
					<path style="fill:#F4D793;" d="M331.366,378.263h-0.488v10.774c0.163,0.017,0.32,0.035,0.488,0.051V378.263z"/>
					<path style="fill:#F4D793;" d="M367.089,378.263h-0.488v12.015c0.163-0.001,0.325-0.003,0.488-0.005V378.263z"/>
					<path style="fill:#F4D793;" d="M362.422,390.298v-12.035h-0.488v12.035c0.082,0,0.162,0,0.244,0
						C362.26,390.299,362.34,390.298,362.422,390.298z"/>
					<path style="fill:#F4D793;" d="M396.63,378.263h-0.488v10.46c0.167-0.022,0.328-0.045,0.488-0.068V378.263z"/>
					<path style="fill:#F4D793;" d="M398.992,378.263h-0.488v10.092c0.165-0.03,0.334-0.06,0.488-0.09V378.263z"/>
					<path style="fill:#F4D793;" d="M389.776,378.263h-0.488v11.151c0.165-0.013,0.326-0.026,0.488-0.039V378.263z"/>
					<path style="fill:#F4D793;" d="M400.883,378.263h-0.488v9.677c0.174-0.048,0.339-0.096,0.488-0.145V378.263z"/>
					<path style="fill:#F4D793;" d="M393.478,378.263h-0.488v10.826c0.167-0.017,0.325-0.034,0.488-0.051V378.263z"/>
					<path style="fill:#F4D793;" d="M376.424,378.263h-0.488v11.833c0.165-0.005,0.325-0.011,0.488-0.016V378.263z"/>
					<path style="fill:#F4D793;" d="M371.757,378.263h-0.488v11.948c0.163-0.003,0.326-0.006,0.488-0.009V378.263z"/>
					<path style="fill:#F4D793;" d="M381.091,378.263h-0.488v11.66c0.162-0.007,0.327-0.014,0.488-0.021V378.263z"/>
					<path style="fill:#F4D793;" d="M385.758,378.263h-0.488v11.423c0.163-0.01,0.327-0.019,0.488-0.029V378.263z"/>
				</g>
				<ellipse style="fill:#DA8928;" cx="362.178" cy="378.263" rx="39.941" ry="3.326"/>
			</g>
			<g>
				
					<linearGradient id="SVGID_00000073687576182342987510000012000213497674683304_" gradientUnits="userSpaceOnUse" x1="323.4271" y1="374.2414" x2="403.3082" y2="374.2414">
					<stop  offset="0" style="stop-color:#DA8928"/>
					<stop  offset="1" style="stop-color:#EECD5A"/>
				</linearGradient>
				<path style="fill:url(#SVGID_00000073687576182342987510000012000213497674683304_);" d="M323.427,368.224v8.709
					c0,1.837,17.882,3.327,39.94,3.327c22.059,0,39.941-1.489,39.941-3.327v-8.709H323.427z"/>
				<g>
					<path style="fill:#F4D793;" d="M349.61,368.224h-0.488v11.817c0.164,0.005,0.324,0.011,0.488,0.016V368.224z"/>
					<path style="fill:#F4D793;" d="M344.942,368.224h-0.488v11.639c0.161,0.007,0.326,0.014,0.488,0.021V368.224z"/>
					<path style="fill:#F4D793;" d="M354.277,368.224h-0.488v11.939c0.162,0.003,0.326,0.006,0.488,0.009V368.224z"/>
					<path style="fill:#F4D793;" d="M358.945,368.224h-0.488v12.01c0.163,0.002,0.325,0.004,0.488,0.005V368.224z"/>
					<path style="fill:#F4D793;" d="M340.274,368.224h-0.488v11.393c0.161,0.01,0.325,0.019,0.488,0.029V368.224z"/>
					<path style="fill:#F4D793;" d="M336.257,368.224h-0.488v11.112c0.163,0.013,0.323,0.026,0.488,0.039V368.224z"/>
					<path style="fill:#F4D793;" d="M324.662,377.756c0.149,0.049,0.314,0.097,0.488,0.145v-9.677h-0.488V377.756z"/>
					<path style="fill:#F4D793;" d="M327.041,368.224h-0.488v10.001c0.154,0.03,0.323,0.06,0.488,0.09V368.224z"/>
					<path style="fill:#F4D793;" d="M329.404,368.224h-0.488v10.392c0.16,0.022,0.322,0.045,0.488,0.068V368.224z"/>
					<path style="fill:#F4D793;" d="M332.555,368.224h-0.488v10.774c0.164,0.017,0.32,0.035,0.488,0.052V368.224z"/>
					<path style="fill:#F4D793;" d="M368.279,368.224h-0.488v12.015c0.164-0.001,0.325-0.003,0.488-0.005V368.224z"/>
					<path style="fill:#F4D793;" d="M363.612,380.259v-12.035h-0.488v12.035c0.082,0,0.162,0.001,0.244,0.001
						S363.53,380.259,363.612,380.259z"/>
					<path style="fill:#F4D793;" d="M397.819,368.224h-0.488v10.459c0.167-0.022,0.328-0.045,0.488-0.068V368.224z"/>
					<path style="fill:#F4D793;" d="M400.182,368.224h-0.488v10.092c0.165-0.03,0.334-0.06,0.488-0.09V368.224z"/>
					<path style="fill:#F4D793;" d="M390.966,368.224h-0.488v11.151c0.165-0.013,0.326-0.026,0.488-0.039V368.224z"/>
					<path style="fill:#F4D793;" d="M402.073,368.224h-0.488v9.677c0.174-0.048,0.339-0.096,0.488-0.145V368.224z"/>
					<path style="fill:#F4D793;" d="M394.668,368.224h-0.488v10.826c0.167-0.017,0.324-0.034,0.488-0.052V368.224z"/>
					<path style="fill:#F4D793;" d="M377.613,368.224h-0.488v11.833c0.164-0.005,0.324-0.011,0.488-0.016V368.224z"/>
					<path style="fill:#F4D793;" d="M372.946,368.224h-0.488v11.948c0.163-0.003,0.326-0.006,0.488-0.009V368.224z"/>
					<path style="fill:#F4D793;" d="M382.281,368.224h-0.488v11.66c0.162-0.007,0.328-0.013,0.488-0.021V368.224z"/>
					<path style="fill:#F4D793;" d="M386.948,368.224h-0.488v11.422c0.163-0.01,0.327-0.019,0.488-0.029V368.224z"/>
				</g>
				<path style="fill:#DA8928;" d="M403.308,368.224c0,1.837-17.882,3.326-39.941,3.326c-22.059,0-39.94-1.489-39.94-3.326
					c0-1.837,17.882-3.326,39.94-3.326C385.426,364.897,403.308,366.386,403.308,368.224z"/>
			</g>
			<g>
				
					<linearGradient id="SVGID_00000146465271220748696720000011236509688239148427_" gradientUnits="userSpaceOnUse" x1="362.1779" y1="368.0546" x2="362.1779" y2="356.7069">
					<stop  offset="0" style="stop-color:#DA8928"/>
					<stop  offset="1" style="stop-color:#EECD5A"/>
				</linearGradient>
				<path style="fill:url(#SVGID_00000146465271220748696720000011236509688239148427_);" d="M322.237,358.184v8.709
					c0,1.837,17.882,3.326,39.941,3.326c22.059,0,39.941-1.489,39.941-3.326v-8.709H322.237z"/>
				<g>
					<path style="fill:#F4D793;" d="M348.42,358.184h-0.488v11.817c0.164,0.005,0.323,0.011,0.488,0.016V358.184z"/>
					<path style="fill:#F4D793;" d="M343.752,358.184h-0.488v11.639c0.161,0.007,0.326,0.014,0.488,0.021V358.184z"/>
					<path style="fill:#F4D793;" d="M353.087,358.184H352.6v11.939c0.162,0.003,0.325,0.006,0.488,0.009V358.184z"/>
					<path style="fill:#F4D793;" d="M357.755,358.184h-0.488v12.01c0.163,0.002,0.324,0.004,0.488,0.005V358.184z"/>
					<path style="fill:#F4D793;" d="M339.085,358.184h-0.488v11.393c0.161,0.01,0.325,0.019,0.488,0.029V358.184z"/>
					<path style="fill:#F4D793;" d="M335.067,358.184h-0.488v11.112c0.162,0.013,0.323,0.026,0.488,0.039V358.184z"/>
					<path style="fill:#F4D793;" d="M323.473,367.716c0.149,0.049,0.314,0.097,0.488,0.145v-9.677h-0.488V367.716z"/>
					<path style="fill:#F4D793;" d="M325.851,358.184h-0.488v10.001c0.154,0.03,0.323,0.06,0.488,0.09V358.184z"/>
					<path style="fill:#F4D793;" d="M328.214,358.184h-0.488v10.391c0.161,0.023,0.322,0.046,0.488,0.068V358.184z"/>
					<path style="fill:#F4D793;" d="M331.366,358.184h-0.488v10.774c0.163,0.017,0.32,0.035,0.488,0.052V358.184z"/>
					<path style="fill:#F4D793;" d="M367.089,358.184h-0.488v12.015c0.163-0.001,0.325-0.004,0.488-0.005V358.184z"/>
					<path style="fill:#F4D793;" d="M362.422,370.219v-12.035h-0.488v12.035c0.082,0,0.162,0,0.244,0
						C362.26,370.22,362.34,370.219,362.422,370.219z"/>
					<path style="fill:#F4D793;" d="M396.63,358.184h-0.488v10.459c0.167-0.022,0.328-0.045,0.488-0.068V358.184z"/>
					<path style="fill:#F4D793;" d="M398.992,358.184h-0.488v10.091c0.165-0.03,0.334-0.06,0.488-0.09V358.184z"/>
					<path style="fill:#F4D793;" d="M389.776,358.184h-0.488v11.151c0.165-0.013,0.326-0.026,0.488-0.039V358.184z"/>
					<path style="fill:#F4D793;" d="M400.883,358.184h-0.488v9.677c0.174-0.048,0.339-0.096,0.488-0.145V358.184z"/>
					<path style="fill:#F4D793;" d="M393.478,358.184h-0.488v10.826c0.167-0.017,0.325-0.034,0.488-0.052V358.184z"/>
					<path style="fill:#F4D793;" d="M376.424,358.184h-0.488v11.833c0.165-0.005,0.325-0.011,0.488-0.016V358.184z"/>
					<path style="fill:#F4D793;" d="M371.757,358.184h-0.488v11.948c0.163-0.003,0.326-0.006,0.488-0.009V358.184z"/>
					<path style="fill:#F4D793;" d="M381.091,358.184h-0.488v11.66c0.162-0.007,0.327-0.013,0.488-0.021V358.184z"/>
					<path style="fill:#F4D793;" d="M385.758,358.184h-0.488v11.422c0.163-0.01,0.327-0.019,0.488-0.029V358.184z"/>
				</g>
				
					<linearGradient id="SVGID_00000017501217609810688400000003445597341461229201_" gradientUnits="userSpaceOnUse" x1="322.2372" y1="358.184" x2="402.1186" y2="358.184">
					<stop  offset="0" style="stop-color:#DA8928"/>
					<stop  offset="1" style="stop-color:#EECD5A"/>
				</linearGradient>
				<path style="fill:url(#SVGID_00000017501217609810688400000003445597341461229201_);" d="M402.119,358.184
					c0,1.837-17.882,3.326-39.941,3.326c-22.059,0-39.941-1.489-39.941-3.326c0-1.837,17.882-3.327,39.941-3.327
					C384.236,354.858,402.119,356.347,402.119,358.184z"/>
			</g>
			<g>
				
					<linearGradient id="SVGID_00000052082176767444371740000005469253813693775029_" gradientUnits="userSpaceOnUse" x1="366.6013" y1="358.176" x2="366.6013" y2="346.8281">
					<stop  offset="0" style="stop-color:#DA8928"/>
					<stop  offset="1" style="stop-color:#EECD5A"/>
				</linearGradient>
				<path style="fill:url(#SVGID_00000052082176767444371740000005469253813693775029_);" d="M326.661,348.305v8.709
					c0,1.837,17.882,3.327,39.941,3.327c22.058,0,39.94-1.489,39.94-3.327v-8.709H326.661z"/>
				<g>
					<path style="fill:#F4D793;" d="M352.844,348.305h-0.488v11.817c0.164,0.005,0.323,0.011,0.488,0.016V348.305z"/>
					<path style="fill:#F4D793;" d="M348.176,348.305h-0.488v11.639c0.161,0.007,0.326,0.014,0.488,0.021V348.305z"/>
					<path style="fill:#F4D793;" d="M357.511,348.305h-0.488v11.939c0.162,0.003,0.326,0.006,0.488,0.009V348.305z"/>
					<path style="fill:#F4D793;" d="M362.178,348.305h-0.488v12.01c0.163,0.002,0.325,0.004,0.488,0.005V348.305z"/>
					<path style="fill:#F4D793;" d="M343.508,348.305h-0.488v11.394c0.161,0.01,0.325,0.019,0.488,0.029V348.305z"/>
					<path style="fill:#F4D793;" d="M339.491,348.305h-0.488v11.113c0.163,0.013,0.323,0.026,0.488,0.039V348.305z"/>
					<path style="fill:#F4D793;" d="M327.896,357.838c0.149,0.049,0.314,0.097,0.488,0.145v-9.677h-0.488V357.838z"/>
					<path style="fill:#F4D793;" d="M330.274,348.305h-0.488v10.001c0.154,0.03,0.323,0.06,0.488,0.09V348.305z"/>
					<path style="fill:#F4D793;" d="M332.638,348.305h-0.488v10.392c0.16,0.023,0.321,0.045,0.488,0.068V348.305z"/>
					<path style="fill:#F4D793;" d="M335.789,348.305h-0.488v10.774c0.164,0.017,0.321,0.035,0.488,0.052V348.305z"/>
					<path style="fill:#F4D793;" d="M371.513,348.305h-0.488v12.015c0.164-0.002,0.325-0.004,0.488-0.005V348.305z"/>
					<path style="fill:#F4D793;" d="M366.846,360.341v-12.035h-0.488v12.035c0.081,0,0.162,0,0.244,0
						C366.683,360.341,366.764,360.341,366.846,360.341z"/>
					<path style="fill:#F4D793;" d="M401.053,348.305h-0.488v10.459c0.167-0.022,0.328-0.045,0.488-0.068V348.305z"/>
					<path style="fill:#F4D793;" d="M403.416,348.305h-0.488v10.092c0.165-0.03,0.334-0.06,0.488-0.09V348.305z"/>
					<path style="fill:#F4D793;" d="M394.199,348.305h-0.488v11.151c0.165-0.013,0.326-0.026,0.488-0.039V348.305z"/>
					<path style="fill:#F4D793;" d="M405.307,348.305h-0.488v9.677c0.174-0.048,0.339-0.096,0.488-0.145V348.305z"/>
					<path style="fill:#F4D793;" d="M397.902,348.305h-0.488v10.826c0.167-0.017,0.324-0.035,0.488-0.052V348.305z"/>
					<path style="fill:#F4D793;" d="M380.847,348.305h-0.488v11.833c0.165-0.005,0.325-0.011,0.488-0.016V348.305z"/>
					<path style="fill:#F4D793;" d="M376.18,348.305h-0.488v11.948c0.163-0.003,0.326-0.006,0.488-0.009V348.305z"/>
					<path style="fill:#F4D793;" d="M385.515,348.305h-0.488v11.66c0.162-0.007,0.327-0.013,0.488-0.021V348.305z"/>
					<path style="fill:#F4D793;" d="M390.182,348.305h-0.488v11.423c0.163-0.01,0.327-0.019,0.488-0.029V348.305z"/>
				</g>
				<path style="fill:#DA8928;" d="M406.542,348.305c0,1.837-17.882,3.327-39.94,3.327c-22.059,0-39.941-1.489-39.941-3.327
					c0-1.837,17.882-3.326,39.941-3.326C388.66,344.979,406.542,346.468,406.542,348.305z"/>
			</g>
			<g>
				
					<linearGradient id="SVGID_00000181063465948357871300000007304560921911545230_" gradientUnits="userSpaceOnUse" x1="358.4566" y1="348.1811" x2="358.4566" y2="336.8332">
					<stop  offset="0" style="stop-color:#DA8928"/>
					<stop  offset="1" style="stop-color:#EECD5A"/>
				</linearGradient>
				<path style="fill:url(#SVGID_00000181063465948357871300000007304560921911545230_);" d="M318.516,338.31v8.709
					c0,1.837,17.882,3.326,39.94,3.326c22.059,0,39.941-1.489,39.941-3.326v-8.709H318.516z"/>
				<g>
					<path style="fill:#F4D793;" d="M344.699,338.31h-0.488v11.817c0.164,0.005,0.324,0.011,0.488,0.016V338.31z"/>
					<path style="fill:#F4D793;" d="M340.031,338.31h-0.488v11.639c0.161,0.007,0.326,0.014,0.488,0.021V338.31z"/>
					<path style="fill:#F4D793;" d="M349.366,338.31h-0.488v11.939c0.162,0.003,0.326,0.006,0.488,0.009V338.31z"/>
					<path style="fill:#F4D793;" d="M354.033,338.31h-0.488v12.01c0.163,0.002,0.324,0.004,0.488,0.005V338.31z"/>
					<path style="fill:#F4D793;" d="M335.363,338.31h-0.488v11.394c0.161,0.01,0.325,0.019,0.488,0.029V338.31z"/>
					<path style="fill:#F4D793;" d="M331.346,338.31h-0.488v11.113c0.163,0.013,0.323,0.026,0.488,0.039V338.31z"/>
					<path style="fill:#F4D793;" d="M319.751,347.843c0.149,0.049,0.314,0.097,0.488,0.145v-9.677h-0.488V347.843z"/>
					<path style="fill:#F4D793;" d="M322.13,338.31h-0.488v10.001c0.154,0.03,0.323,0.06,0.488,0.09V338.31z"/>
					<path style="fill:#F4D793;" d="M324.493,338.31h-0.488v10.392c0.16,0.023,0.321,0.046,0.488,0.068V338.31z"/>
					<path style="fill:#F4D793;" d="M327.644,338.31h-0.488v10.774c0.163,0.017,0.32,0.035,0.488,0.051V338.31z"/>
					<path style="fill:#F4D793;" d="M363.368,338.31h-0.488v12.015c0.163-0.001,0.325-0.004,0.488-0.005V338.31z"/>
					<path style="fill:#F4D793;" d="M358.701,350.346V338.31h-0.488v12.035c0.082,0,0.162,0,0.244,0
						C358.538,350.346,358.619,350.346,358.701,350.346z"/>
					<path style="fill:#F4D793;" d="M392.908,338.31h-0.488v10.459c0.166-0.022,0.327-0.045,0.488-0.068V338.31z"/>
					<path style="fill:#F4D793;" d="M395.271,338.31h-0.488v10.092c0.165-0.03,0.334-0.06,0.488-0.09V338.31z"/>
					<path style="fill:#F4D793;" d="M386.055,338.31h-0.488v11.151c0.165-0.013,0.326-0.026,0.488-0.039V338.31z"/>
					<path style="fill:#F4D793;" d="M397.162,338.31h-0.488v9.677c0.174-0.048,0.339-0.096,0.488-0.145V338.31z"/>
					<path style="fill:#F4D793;" d="M389.757,338.31h-0.488v10.826c0.167-0.017,0.325-0.034,0.488-0.051V338.31z"/>
					<path style="fill:#F4D793;" d="M372.702,338.31h-0.488v11.833c0.164-0.005,0.325-0.011,0.488-0.016V338.31z"/>
					<path style="fill:#F4D793;" d="M368.035,338.31h-0.488v11.948c0.163-0.003,0.326-0.006,0.488-0.009V338.31z"/>
					<path style="fill:#F4D793;" d="M377.37,338.31h-0.488v11.66c0.162-0.007,0.327-0.013,0.488-0.021V338.31z"/>
					<path style="fill:#F4D793;" d="M382.037,338.31h-0.488v11.423c0.163-0.01,0.327-0.019,0.488-0.029V338.31z"/>
				</g>
				<path style="fill:#DA8928;" d="M398.397,338.31c0,1.837-17.882,3.327-39.941,3.327c-22.058,0-39.94-1.489-39.94-3.327
					c0-1.837,17.882-3.326,39.94-3.326C380.515,334.984,398.397,336.473,398.397,338.31z"/>
			</g>
			<g>
				
					<linearGradient id="SVGID_00000077293398261415506200000006463313293744504459_" gradientUnits="userSpaceOnUse" x1="361.6903" y1="337.5466" x2="361.6903" y2="326.1988">
					<stop  offset="0" style="stop-color:#DA8928"/>
					<stop  offset="1" style="stop-color:#EECD5A"/>
				</linearGradient>
				<path style="fill:url(#SVGID_00000077293398261415506200000006463313293744504459_);" d="M321.75,327.676v8.709
					c0,1.837,17.882,3.326,39.94,3.326c22.059,0,39.941-1.489,39.941-3.326v-8.709H321.75z"/>
				<g>
					<path style="fill:#F4D793;" d="M347.933,327.676h-0.488v11.817c0.164,0.005,0.324,0.011,0.488,0.016V327.676z"/>
					<path style="fill:#F4D793;" d="M343.264,327.676h-0.488v11.639c0.161,0.007,0.326,0.014,0.488,0.021V327.676z"/>
					<path style="fill:#F4D793;" d="M352.6,327.676h-0.488v11.939c0.162,0.004,0.325,0.006,0.488,0.01V327.676z"/>
					<path style="fill:#F4D793;" d="M357.267,327.676h-0.488v12.01c0.163,0.002,0.325,0.004,0.488,0.005V327.676z"/>
					<path style="fill:#F4D793;" d="M338.597,327.676h-0.488v11.394c0.161,0.01,0.325,0.019,0.488,0.029V327.676z"/>
					<path style="fill:#F4D793;" d="M334.58,327.676h-0.488v11.113c0.163,0.013,0.323,0.026,0.488,0.039V327.676z"/>
					<path style="fill:#F4D793;" d="M322.985,337.209c0.149,0.049,0.314,0.097,0.488,0.145v-9.677h-0.488V337.209z"/>
					<path style="fill:#F4D793;" d="M325.363,327.676h-0.488v10.001c0.154,0.03,0.323,0.06,0.488,0.09V327.676z"/>
					<path style="fill:#F4D793;" d="M327.727,327.676h-0.488v10.392c0.16,0.023,0.322,0.045,0.488,0.068V327.676z"/>
					<path style="fill:#F4D793;" d="M330.878,327.676h-0.488v10.774c0.164,0.017,0.321,0.035,0.488,0.052V327.676z"/>
					<path style="fill:#F4D793;" d="M366.602,327.676h-0.488v12.015c0.163-0.001,0.325-0.003,0.488-0.005V327.676z"/>
					<path style="fill:#F4D793;" d="M361.934,339.711v-12.035h-0.488v12.035c0.082,0,0.162,0,0.244,0
						C361.772,339.712,361.853,339.711,361.934,339.711z"/>
					<path style="fill:#F4D793;" d="M396.142,327.676h-0.488v10.459c0.167-0.022,0.328-0.045,0.488-0.068V327.676z"/>
					<path style="fill:#F4D793;" d="M398.505,327.676h-0.488v10.092c0.165-0.03,0.334-0.06,0.488-0.09V327.676z"/>
					<path style="fill:#F4D793;" d="M389.288,327.676H388.8v11.151c0.165-0.013,0.326-0.026,0.488-0.039V327.676z"/>
					<path style="fill:#F4D793;" d="M400.396,327.676h-0.488v9.677c0.174-0.048,0.339-0.096,0.488-0.145V327.676z"/>
					<path style="fill:#F4D793;" d="M392.991,327.676h-0.488v10.826c0.168-0.017,0.325-0.034,0.488-0.052V327.676z"/>
					<path style="fill:#F4D793;" d="M375.936,327.676h-0.488v11.833c0.165-0.005,0.325-0.011,0.488-0.016V327.676z"/>
					<path style="fill:#F4D793;" d="M371.269,327.676h-0.488v11.948c0.163-0.003,0.326-0.006,0.488-0.01V327.676z"/>
					<path style="fill:#F4D793;" d="M380.604,327.676h-0.488v11.66c0.162-0.007,0.327-0.014,0.488-0.021V327.676z"/>
					<path style="fill:#F4D793;" d="M385.271,327.676h-0.488v11.422c0.163-0.009,0.327-0.019,0.488-0.029V327.676z"/>
				</g>
				<path style="fill:#DA8928;" d="M401.631,327.676c0,1.837-17.882,3.327-39.941,3.327c-22.059,0-39.94-1.489-39.94-3.327
					c0-1.837,17.882-3.326,39.94-3.326C383.749,324.35,401.631,325.839,401.631,327.676z"/>
			</g>
			<g>
				
					<linearGradient id="SVGID_00000016063237462923270110000000490433591888032700_" gradientUnits="userSpaceOnUse" x1="361.6903" y1="327.6511" x2="361.6903" y2="316.3032">
					<stop  offset="0" style="stop-color:#DA8928"/>
					<stop  offset="1" style="stop-color:#EECD5A"/>
				</linearGradient>
				<path style="fill:url(#SVGID_00000016063237462923270110000000490433591888032700_);" d="M321.75,317.78v8.709
					c0,1.837,17.882,3.327,39.94,3.327c22.059,0,39.941-1.489,39.941-3.327v-8.709H321.75z"/>
				<g>
					<path style="fill:#F4D793;" d="M347.933,317.78h-0.488v11.817c0.164,0.005,0.324,0.011,0.488,0.016V317.78z"/>
					<path style="fill:#F4D793;" d="M343.264,317.78h-0.488v11.639c0.161,0.007,0.326,0.014,0.488,0.021V317.78z"/>
					<path style="fill:#F4D793;" d="M352.6,317.78h-0.488v11.939c0.162,0.003,0.325,0.006,0.488,0.009V317.78z"/>
					<path style="fill:#F4D793;" d="M357.267,317.78h-0.488v12.01c0.163,0.002,0.325,0.004,0.488,0.005V317.78z"/>
					<path style="fill:#F4D793;" d="M338.597,317.78h-0.488v11.393c0.161,0.01,0.325,0.019,0.488,0.029V317.78z"/>
					<path style="fill:#F4D793;" d="M334.58,317.78h-0.488v11.112c0.163,0.013,0.323,0.026,0.488,0.039V317.78z"/>
					<path style="fill:#F4D793;" d="M322.985,327.313c0.149,0.049,0.314,0.097,0.488,0.145v-9.677h-0.488V327.313z"/>
					<path style="fill:#F4D793;" d="M325.363,317.78h-0.488v10.001c0.154,0.03,0.323,0.06,0.488,0.09V317.78z"/>
					<path style="fill:#F4D793;" d="M327.727,317.78h-0.488v10.392c0.16,0.023,0.322,0.046,0.488,0.068V317.78z"/>
					<path style="fill:#F4D793;" d="M330.878,317.78h-0.488v10.774c0.164,0.017,0.321,0.035,0.488,0.051V317.78z"/>
					<path style="fill:#F4D793;" d="M366.602,317.78h-0.488v12.015c0.163-0.002,0.325-0.004,0.488-0.005V317.78z"/>
					<path style="fill:#F4D793;" d="M361.934,329.815V317.78h-0.488v12.035c0.082,0,0.162,0.001,0.244,0.001
						C361.772,329.816,361.853,329.815,361.934,329.815z"/>
					<path style="fill:#F4D793;" d="M396.142,317.78h-0.488v10.459c0.167-0.022,0.328-0.045,0.488-0.068V317.78z"/>
					<path style="fill:#F4D793;" d="M398.505,317.78h-0.488v10.092c0.165-0.03,0.334-0.06,0.488-0.09V317.78z"/>
					<path style="fill:#F4D793;" d="M389.288,317.78H388.8v11.151c0.165-0.013,0.326-0.026,0.488-0.039V317.78z"/>
					<path style="fill:#F4D793;" d="M400.396,317.78h-0.488v9.677c0.174-0.048,0.339-0.096,0.488-0.145V317.78z"/>
					<path style="fill:#F4D793;" d="M392.991,317.78h-0.488v10.826c0.168-0.017,0.325-0.034,0.488-0.051V317.78z"/>
					<path style="fill:#F4D793;" d="M375.936,317.78h-0.488v11.833c0.165-0.005,0.325-0.011,0.488-0.016V317.78z"/>
					<path style="fill:#F4D793;" d="M371.269,317.78h-0.488v11.948c0.163-0.003,0.326-0.006,0.488-0.009V317.78z"/>
					<path style="fill:#F4D793;" d="M380.604,317.78h-0.488v11.66c0.162-0.007,0.327-0.014,0.488-0.021V317.78z"/>
					<path style="fill:#F4D793;" d="M385.271,317.78h-0.488v11.423c0.163-0.01,0.327-0.019,0.488-0.029V317.78z"/>
				</g>
				<path style="fill:#DA8928;" d="M401.631,317.78c0,1.837-17.882,3.326-39.941,3.326c-22.059,0-39.94-1.489-39.94-3.326
					c0-1.837,17.882-3.326,39.94-3.326C383.749,314.454,401.631,315.943,401.631,317.78z"/>
			</g>
		</g>
		<g>
			<g>
				
					<linearGradient id="SVGID_00000119809685936546108350000012223751136366552498_" gradientUnits="userSpaceOnUse" x1="293.5865" y1="391.6077" x2="293.5865" y2="380.2598">
					<stop  offset="0" style="stop-color:#DA8928"/>
					<stop  offset="1" style="stop-color:#EECD5A"/>
				</linearGradient>
				<path style="fill:url(#SVGID_00000119809685936546108350000012223751136366552498_);" d="M253.646,381.737v8.709
					c0,1.837,17.882,3.327,39.941,3.327c22.058,0,39.94-1.49,39.94-3.327v-8.709H253.646z"/>
				<g>
					<path style="fill:#F4D793;" d="M279.829,381.737h-0.488v11.817c0.164,0.005,0.323,0.011,0.488,0.016V381.737z"/>
					<path style="fill:#F4D793;" d="M275.161,381.737h-0.488v11.639c0.161,0.007,0.326,0.014,0.488,0.021V381.737z"/>
					<path style="fill:#F4D793;" d="M284.496,381.737h-0.488v11.939c0.162,0.003,0.326,0.006,0.488,0.009V381.737z"/>
					<path style="fill:#F4D793;" d="M289.163,381.737h-0.488v12.01c0.163,0.002,0.324,0.004,0.488,0.005V381.737z"/>
					<path style="fill:#F4D793;" d="M270.493,381.737h-0.488v11.394c0.161,0.01,0.325,0.019,0.488,0.029V381.737z"/>
					<path style="fill:#F4D793;" d="M266.476,381.737h-0.488v11.112c0.162,0.013,0.323,0.026,0.488,0.039V381.737z"/>
					<path style="fill:#F4D793;" d="M254.881,391.27c0.149,0.049,0.314,0.097,0.488,0.145v-9.677h-0.488V391.27z"/>
					<path style="fill:#F4D793;" d="M257.259,381.737h-0.488v10.001c0.154,0.03,0.323,0.06,0.488,0.09V381.737z"/>
					<path style="fill:#F4D793;" d="M259.623,381.737h-0.488v10.392c0.16,0.023,0.321,0.046,0.488,0.068V381.737z"/>
					<path style="fill:#F4D793;" d="M262.774,381.737h-0.488v10.774c0.163,0.017,0.321,0.035,0.488,0.051V381.737z"/>
					<path style="fill:#F4D793;" d="M298.498,381.737h-0.488v12.015c0.164-0.001,0.325-0.003,0.488-0.005V381.737z"/>
					<path style="fill:#F4D793;" d="M293.831,393.772v-12.035h-0.488v12.035c0.081,0,0.162,0,0.244,0
						C293.668,393.773,293.749,393.772,293.831,393.772z"/>
					<path style="fill:#F4D793;" d="M328.038,381.737h-0.488v10.459c0.167-0.022,0.328-0.045,0.488-0.068V381.737z"/>
					<path style="fill:#F4D793;" d="M330.401,381.737h-0.488v10.092c0.165-0.03,0.334-0.06,0.488-0.09V381.737z"/>
					<path style="fill:#F4D793;" d="M321.184,381.737h-0.488v11.151c0.165-0.013,0.326-0.026,0.488-0.039V381.737z"/>
					<path style="fill:#F4D793;" d="M332.292,381.737h-0.488v9.677c0.174-0.048,0.339-0.096,0.488-0.145V381.737z"/>
					<path style="fill:#F4D793;" d="M324.887,381.737h-0.488v10.826c0.167-0.017,0.324-0.034,0.488-0.051V381.737z"/>
					<path style="fill:#F4D793;" d="M307.833,381.737h-0.488v11.833c0.165-0.005,0.325-0.011,0.488-0.016V381.737z"/>
					<path style="fill:#F4D793;" d="M303.165,381.737h-0.488v11.948c0.162-0.003,0.326-0.006,0.488-0.009V381.737z"/>
					<path style="fill:#F4D793;" d="M312.5,381.737h-0.488v11.66c0.162-0.007,0.327-0.014,0.488-0.021V381.737z"/>
					<path style="fill:#F4D793;" d="M317.167,381.737h-0.488v11.423c0.163-0.01,0.327-0.019,0.488-0.029V381.737z"/>
				</g>
				<ellipse style="fill:#DA8928;" cx="293.587" cy="381.737" rx="39.941" ry="3.326"/>
			</g>
			<g>
				
					<linearGradient id="SVGID_00000150815184763313188010000015364419473630309766_" gradientUnits="userSpaceOnUse" x1="294.7762" y1="381.5681" x2="294.7762" y2="370.2202">
					<stop  offset="0" style="stop-color:#DA8928"/>
					<stop  offset="1" style="stop-color:#EECD5A"/>
				</linearGradient>
				<path style="fill:url(#SVGID_00000150815184763313188010000015364419473630309766_);" d="M254.836,371.697v8.709
					c0,1.837,17.882,3.326,39.94,3.326c22.059,0,39.941-1.489,39.941-3.326v-8.709H254.836z"/>
				<g>
					<path style="fill:#F4D793;" d="M281.019,371.697h-0.488v11.817c0.164,0.005,0.324,0.011,0.488,0.016V371.697z"/>
					<path style="fill:#F4D793;" d="M276.35,371.697h-0.488v11.639c0.161,0.007,0.326,0.014,0.488,0.021V371.697z"/>
					<path style="fill:#F4D793;" d="M285.686,371.697h-0.488v11.939c0.162,0.003,0.325,0.006,0.488,0.009V371.697z"/>
					<path style="fill:#F4D793;" d="M290.353,371.697h-0.488v12.01c0.163,0.002,0.325,0.004,0.488,0.005V371.697z"/>
					<path style="fill:#F4D793;" d="M271.683,371.697h-0.488v11.394c0.161,0.01,0.325,0.019,0.488,0.029V371.697z"/>
					<path style="fill:#F4D793;" d="M267.666,371.697h-0.488v11.113c0.162,0.013,0.323,0.026,0.488,0.039V371.697z"/>
					<path style="fill:#F4D793;" d="M256.071,381.23c0.149,0.049,0.314,0.097,0.488,0.145v-9.677h-0.488V381.23z"/>
					<path style="fill:#F4D793;" d="M258.449,371.697h-0.488v10.001c0.154,0.03,0.323,0.06,0.488,0.09V371.697z"/>
					<path style="fill:#F4D793;" d="M260.813,371.697h-0.488v10.392c0.16,0.022,0.321,0.045,0.488,0.068V371.697z"/>
					<path style="fill:#F4D793;" d="M263.964,371.697h-0.488v10.774c0.163,0.017,0.32,0.035,0.488,0.051V371.697z"/>
					<path style="fill:#F4D793;" d="M299.688,371.697H299.2v12.015c0.164-0.001,0.325-0.003,0.488-0.005V371.697z"/>
					<path style="fill:#F4D793;" d="M295.02,383.733v-12.035h-0.488v12.035c0.082,0,0.162,0,0.244,0
						C294.858,383.733,294.939,383.733,295.02,383.733z"/>
					<path style="fill:#F4D793;" d="M329.228,371.697h-0.488v10.459c0.167-0.022,0.328-0.045,0.488-0.068V371.697z"/>
					<path style="fill:#F4D793;" d="M331.591,371.697h-0.488v10.092c0.165-0.03,0.334-0.06,0.488-0.09V371.697z"/>
					<path style="fill:#F4D793;" d="M322.374,371.697h-0.488v11.151c0.165-0.013,0.326-0.026,0.488-0.039V371.697z"/>
					<path style="fill:#F4D793;" d="M333.482,371.697h-0.488v9.677c0.174-0.048,0.339-0.096,0.488-0.145V371.697z"/>
					<path style="fill:#F4D793;" d="M326.077,371.697h-0.488v10.826c0.168-0.017,0.325-0.034,0.488-0.051V371.697z"/>
					<path style="fill:#F4D793;" d="M309.022,371.697h-0.488v11.833c0.164-0.005,0.324-0.011,0.488-0.016V371.697z"/>
					<path style="fill:#F4D793;" d="M304.355,371.697h-0.488v11.948c0.163-0.003,0.326-0.006,0.488-0.009V371.697z"/>
					<path style="fill:#F4D793;" d="M313.689,371.697h-0.488v11.66c0.162-0.007,0.327-0.013,0.488-0.021V371.697z"/>
					<path style="fill:#F4D793;" d="M318.357,371.697h-0.488v11.422c0.163-0.01,0.327-0.019,0.488-0.029V371.697z"/>
				</g>
				<path style="fill:#DA8928;" d="M334.717,371.697c0,1.837-17.882,3.326-39.941,3.326c-22.059,0-39.94-1.489-39.94-3.326
					c0-1.837,17.882-3.326,39.94-3.326C316.835,368.371,334.717,369.86,334.717,371.697z"/>
			</g>
			<g>
				
					<linearGradient id="SVGID_00000115503200652514569470000006682540722370698903_" gradientUnits="userSpaceOnUse" x1="293.5865" y1="371.5286" x2="293.5865" y2="360.1809">
					<stop  offset="0" style="stop-color:#DA8928"/>
					<stop  offset="1" style="stop-color:#EECD5A"/>
				</linearGradient>
				<path style="fill:url(#SVGID_00000115503200652514569470000006682540722370698903_);" d="M253.646,361.658v8.709
					c0,1.837,17.882,3.326,39.941,3.326c22.058,0,39.94-1.489,39.94-3.326v-8.709H253.646z"/>
				<g>
					<path style="fill:#F4D793;" d="M279.829,361.658h-0.488v11.817c0.164,0.005,0.323,0.011,0.488,0.016V361.658z"/>
					<path style="fill:#F4D793;" d="M275.161,361.658h-0.488v11.639c0.161,0.007,0.326,0.014,0.488,0.021V361.658z"/>
					<path style="fill:#F4D793;" d="M284.496,361.658h-0.488v11.939c0.162,0.003,0.326,0.006,0.488,0.009V361.658z"/>
					<path style="fill:#F4D793;" d="M289.163,361.658h-0.488v12.01c0.163,0.002,0.324,0.004,0.488,0.005V361.658z"/>
					<path style="fill:#F4D793;" d="M270.493,361.658h-0.488v11.393c0.161,0.01,0.325,0.019,0.488,0.029V361.658z"/>
					<path style="fill:#F4D793;" d="M266.476,361.658h-0.488v11.112c0.162,0.013,0.323,0.026,0.488,0.039V361.658z"/>
					<path style="fill:#F4D793;" d="M254.881,371.19c0.149,0.049,0.314,0.097,0.488,0.145v-9.677h-0.488V371.19z"/>
					<path style="fill:#F4D793;" d="M257.259,361.658h-0.488v10.001c0.155,0.03,0.323,0.06,0.488,0.09V361.658z"/>
					<path style="fill:#F4D793;" d="M259.623,361.658h-0.488v10.391c0.16,0.023,0.321,0.046,0.488,0.068V361.658z"/>
					<path style="fill:#F4D793;" d="M262.774,361.658h-0.488v10.774c0.163,0.017,0.321,0.035,0.488,0.052V361.658z"/>
					<path style="fill:#F4D793;" d="M298.498,361.658h-0.488v12.015c0.164-0.001,0.325-0.004,0.488-0.005V361.658z"/>
					<path style="fill:#F4D793;" d="M293.831,373.693v-12.035h-0.488v12.035c0.081,0,0.162,0,0.244,0
						C293.668,373.694,293.749,373.693,293.831,373.693z"/>
					<path style="fill:#F4D793;" d="M328.038,361.658h-0.488v10.459c0.167-0.022,0.327-0.045,0.488-0.068V361.658z"/>
					<path style="fill:#F4D793;" d="M330.401,361.658h-0.488v10.091c0.165-0.03,0.334-0.06,0.488-0.09V361.658z"/>
					<path style="fill:#F4D793;" d="M321.184,361.658h-0.488v11.151c0.165-0.013,0.326-0.026,0.488-0.039V361.658z"/>
					<path style="fill:#F4D793;" d="M332.292,361.658h-0.488v9.677c0.174-0.048,0.339-0.096,0.488-0.144V361.658z"/>
					<path style="fill:#F4D793;" d="M324.887,361.658h-0.488v10.826c0.167-0.017,0.324-0.034,0.488-0.052V361.658z"/>
					<path style="fill:#F4D793;" d="M307.833,361.658h-0.488v11.833c0.165-0.005,0.325-0.011,0.488-0.016V361.658z"/>
					<path style="fill:#F4D793;" d="M303.165,361.658h-0.488v11.948c0.163-0.003,0.326-0.006,0.488-0.009V361.658z"/>
					<path style="fill:#F4D793;" d="M312.5,361.658h-0.488v11.66c0.162-0.007,0.327-0.013,0.488-0.021V361.658z"/>
					<path style="fill:#F4D793;" d="M317.167,361.658h-0.488v11.422c0.163-0.01,0.327-0.019,0.488-0.029V361.658z"/>
				</g>
				<path style="fill:#DA8928;" d="M333.527,361.658c0,1.837-17.882,3.326-39.94,3.326c-22.059,0-39.941-1.489-39.941-3.326
					c0-1.837,17.882-3.327,39.941-3.327C315.645,358.332,333.527,359.821,333.527,361.658z"/>
			</g>
			<g>
				
					<linearGradient id="SVGID_00000042730582328683989010000018367696297774844306_" gradientUnits="userSpaceOnUse" x1="298.0099" y1="361.65" x2="298.0099" y2="350.3021">
					<stop  offset="0" style="stop-color:#DA8928"/>
					<stop  offset="1" style="stop-color:#EECD5A"/>
				</linearGradient>
				<path style="fill:url(#SVGID_00000042730582328683989010000018367696297774844306_);" d="M258.069,351.779v8.709
					c0,1.837,17.882,3.327,39.94,3.327c22.059,0,39.941-1.489,39.941-3.327v-8.709H258.069z"/>
				<g>
					<path style="fill:#F4D793;" d="M284.252,351.779h-0.488v11.817c0.164,0.005,0.324,0.011,0.488,0.016V351.779z"/>
					<path style="fill:#F4D793;" d="M279.584,351.779h-0.488v11.639c0.161,0.007,0.326,0.014,0.488,0.021V351.779z"/>
					<path style="fill:#F4D793;" d="M288.92,351.779h-0.488v11.939c0.162,0.003,0.326,0.006,0.488,0.009V351.779z"/>
					<path style="fill:#F4D793;" d="M293.587,351.779h-0.488v12.01c0.163,0.002,0.325,0.004,0.488,0.005V351.779z"/>
					<path style="fill:#F4D793;" d="M274.917,351.779h-0.488v11.394c0.161,0.01,0.325,0.019,0.488,0.029V351.779z"/>
					<path style="fill:#F4D793;" d="M270.899,351.779h-0.488v11.113c0.162,0.013,0.323,0.026,0.488,0.039V351.779z"/>
					<path style="fill:#F4D793;" d="M259.305,361.312c0.149,0.049,0.314,0.097,0.488,0.145v-9.677h-0.488V361.312z"/>
					<path style="fill:#F4D793;" d="M261.683,351.779h-0.488v10.001c0.154,0.03,0.323,0.06,0.488,0.09V351.779z"/>
					<path style="fill:#F4D793;" d="M264.047,351.779h-0.488v10.392c0.16,0.023,0.322,0.045,0.488,0.068V351.779z"/>
					<path style="fill:#F4D793;" d="M267.198,351.779h-0.488v10.774c0.164,0.017,0.321,0.035,0.488,0.052V351.779z"/>
					<path style="fill:#F4D793;" d="M302.921,351.779h-0.488v12.015c0.164-0.002,0.325-0.004,0.488-0.005V351.779z"/>
					<path style="fill:#F4D793;" d="M298.254,363.815v-12.035h-0.488v12.035c0.082,0,0.162,0,0.244,0
						C298.092,363.815,298.172,363.815,298.254,363.815z"/>
					<path style="fill:#F4D793;" d="M332.462,351.779h-0.488v10.459c0.166-0.022,0.328-0.045,0.488-0.068V351.779z"/>
					<path style="fill:#F4D793;" d="M334.824,351.779h-0.488v10.092c0.165-0.03,0.334-0.06,0.488-0.09V351.779z"/>
					<path style="fill:#F4D793;" d="M325.608,351.779h-0.488v11.151c0.165-0.013,0.326-0.026,0.488-0.039V351.779z"/>
					<path style="fill:#F4D793;" d="M336.716,351.779h-0.488v9.677c0.174-0.048,0.339-0.096,0.488-0.145V351.779z"/>
					<path style="fill:#F4D793;" d="M329.311,351.779h-0.488v10.826c0.168-0.017,0.325-0.035,0.488-0.052V351.779z"/>
					<path style="fill:#F4D793;" d="M312.256,351.779h-0.488v11.833c0.165-0.005,0.324-0.011,0.488-0.016V351.779z"/>
					<path style="fill:#F4D793;" d="M307.589,351.779h-0.488v11.948c0.163-0.003,0.326-0.006,0.488-0.009V351.779z"/>
					<path style="fill:#F4D793;" d="M316.923,351.779h-0.488v11.66c0.162-0.007,0.327-0.014,0.488-0.021V351.779z"/>
					<path style="fill:#F4D793;" d="M321.591,351.779h-0.488v11.423c0.163-0.01,0.327-0.019,0.488-0.029V351.779z"/>
				</g>
				
					<linearGradient id="SVGID_00000006699374765001250980000015964745983033531838_" gradientUnits="userSpaceOnUse" x1="258.0694" y1="351.7794" x2="337.9505" y2="351.7794">
					<stop  offset="0" style="stop-color:#DA8928"/>
					<stop  offset="1" style="stop-color:#EECD5A"/>
				</linearGradient>
				<path style="fill:url(#SVGID_00000006699374765001250980000015964745983033531838_);" d="M337.951,351.779
					c0,1.837-17.882,3.327-39.941,3.327c-22.059,0-39.94-1.489-39.94-3.327c0-1.837,17.882-3.326,39.94-3.326
					C320.069,348.453,337.951,349.942,337.951,351.779z"/>
			</g>
			<g>
				
					<linearGradient id="SVGID_00000015335351336493879260000001703248765071679933_" gradientUnits="userSpaceOnUse" x1="289.8651" y1="351.6551" x2="289.8651" y2="340.3072">
					<stop  offset="0" style="stop-color:#DA8928"/>
					<stop  offset="1" style="stop-color:#EECD5A"/>
				</linearGradient>
				<path style="fill:url(#SVGID_00000015335351336493879260000001703248765071679933_);" d="M249.924,341.784v8.709
					c0,1.837,17.882,3.327,39.941,3.327c22.059,0,39.941-1.489,39.941-3.327v-8.709H249.924z"/>
				<g>
					<path style="fill:#F4D793;" d="M276.108,341.784h-0.488v11.817c0.164,0.005,0.323,0.011,0.488,0.016V341.784z"/>
					<path style="fill:#F4D793;" d="M271.439,341.784h-0.488v11.639c0.161,0.007,0.326,0.014,0.488,0.021V341.784z"/>
					<path style="fill:#F4D793;" d="M280.775,341.784h-0.488v11.939c0.162,0.003,0.325,0.006,0.488,0.009V341.784z"/>
					<path style="fill:#F4D793;" d="M285.442,341.784h-0.488v12.01c0.163,0.002,0.324,0.004,0.488,0.005V341.784z"/>
					<path style="fill:#F4D793;" d="M266.772,341.784h-0.488v11.394c0.161,0.01,0.325,0.019,0.488,0.029V341.784z"/>
					<path style="fill:#F4D793;" d="M262.754,341.784h-0.488v11.112c0.162,0.013,0.323,0.026,0.488,0.039V341.784z"/>
					<path style="fill:#F4D793;" d="M251.16,351.317c0.149,0.049,0.314,0.097,0.488,0.145v-9.677h-0.488V351.317z"/>
					<path style="fill:#F4D793;" d="M253.538,341.784h-0.488v10.001c0.154,0.03,0.323,0.06,0.488,0.09V341.784z"/>
					<path style="fill:#F4D793;" d="M255.902,341.784h-0.488v10.392c0.16,0.023,0.322,0.046,0.488,0.068V341.784z"/>
					<path style="fill:#F4D793;" d="M259.053,341.784h-0.488v10.774c0.163,0.017,0.32,0.035,0.488,0.051V341.784z"/>
					<path style="fill:#F4D793;" d="M294.777,341.784h-0.488v12.015c0.163-0.001,0.325-0.004,0.488-0.005V341.784z"/>
					<path style="fill:#F4D793;" d="M290.109,353.82v-12.035h-0.488v12.035c0.082,0,0.162,0,0.244,0
						C289.947,353.82,290.027,353.82,290.109,353.82z"/>
					<path style="fill:#F4D793;" d="M324.317,341.784h-0.488v10.459c0.167-0.022,0.328-0.045,0.488-0.068V341.784z"/>
					<path style="fill:#F4D793;" d="M326.68,341.784h-0.488v10.092c0.165-0.03,0.334-0.06,0.488-0.09V341.784z"/>
					<path style="fill:#F4D793;" d="M317.463,341.784h-0.488v11.151c0.165-0.013,0.325-0.026,0.488-0.039V341.784z"/>
					<path style="fill:#F4D793;" d="M328.571,341.784h-0.488v9.677c0.174-0.048,0.339-0.096,0.488-0.145V341.784z"/>
					<path style="fill:#F4D793;" d="M321.166,341.784h-0.488v10.826c0.167-0.017,0.324-0.034,0.488-0.051V341.784z"/>
					<path style="fill:#F4D793;" d="M304.111,341.784h-0.488v11.833c0.164-0.005,0.325-0.011,0.488-0.016V341.784z"/>
					<path style="fill:#F4D793;" d="M299.444,341.784h-0.488v11.948c0.163-0.003,0.326-0.006,0.488-0.009V341.784z"/>
					<path style="fill:#F4D793;" d="M308.778,341.784h-0.488v11.66c0.162-0.007,0.327-0.013,0.488-0.021V341.784z"/>
					<path style="fill:#F4D793;" d="M313.446,341.784h-0.488v11.423c0.163-0.01,0.327-0.019,0.488-0.029V341.784z"/>
				</g>
				<path style="fill:#DA8928;" d="M329.806,341.784c0,1.837-17.882,3.327-39.941,3.327c-22.058,0-39.941-1.489-39.941-3.327
					c0-1.837,17.882-3.326,39.941-3.326C311.924,338.458,329.806,339.947,329.806,341.784z"/>
			</g>
			<g>
				
					<linearGradient id="SVGID_00000106110622875886323960000011444325307151831476_" gradientUnits="userSpaceOnUse" x1="293.0989" y1="341.0206" x2="293.0989" y2="329.6727">
					<stop  offset="0" style="stop-color:#DA8928"/>
					<stop  offset="1" style="stop-color:#EECD5A"/>
				</linearGradient>
				<path style="fill:url(#SVGID_00000106110622875886323960000011444325307151831476_);" d="M253.158,331.15v8.709
					c0,1.837,17.882,3.326,39.94,3.326c22.059,0,39.941-1.489,39.941-3.326v-8.709H253.158z"/>
				<g>
					<path style="fill:#F4D793;" d="M279.341,331.15h-0.488v11.817c0.164,0.005,0.323,0.011,0.488,0.016V331.15z"/>
					<path style="fill:#F4D793;" d="M274.673,331.15h-0.488v11.639c0.161,0.007,0.326,0.014,0.488,0.021V331.15z"/>
					<path style="fill:#F4D793;" d="M284.009,331.15h-0.488v11.939c0.162,0.004,0.326,0.006,0.488,0.01V331.15z"/>
					<path style="fill:#F4D793;" d="M288.676,331.15h-0.488v12.01c0.163,0.002,0.325,0.004,0.488,0.005V331.15z"/>
					<path style="fill:#F4D793;" d="M270.006,331.15h-0.488v11.394c0.161,0.01,0.325,0.019,0.488,0.029V331.15z"/>
					<path style="fill:#F4D793;" d="M265.988,331.15H265.5v11.113c0.162,0.013,0.323,0.026,0.488,0.039V331.15z"/>
					<path style="fill:#F4D793;" d="M254.394,340.683c0.149,0.048,0.314,0.097,0.488,0.145v-9.677h-0.488V340.683z"/>
					<path style="fill:#F4D793;" d="M256.772,331.15h-0.488v10.001c0.154,0.03,0.323,0.06,0.488,0.09V331.15z"/>
					<path style="fill:#F4D793;" d="M259.135,331.15h-0.488v10.392c0.16,0.023,0.322,0.045,0.488,0.068V331.15z"/>
					<path style="fill:#F4D793;" d="M262.287,331.15h-0.488v10.774c0.164,0.017,0.321,0.035,0.488,0.052V331.15z"/>
					<path style="fill:#F4D793;" d="M298.01,331.15h-0.488v12.015c0.163-0.001,0.325-0.003,0.488-0.005V331.15z"/>
					<path style="fill:#F4D793;" d="M293.343,343.185V331.15h-0.488v12.035c0.082,0,0.162,0,0.244,0
						C293.181,343.186,293.261,343.185,293.343,343.185z"/>
					<path style="fill:#F4D793;" d="M327.551,331.15h-0.488v10.46c0.167-0.022,0.328-0.045,0.488-0.068V331.15z"/>
					<path style="fill:#F4D793;" d="M329.913,331.15h-0.488v10.092c0.165-0.03,0.334-0.06,0.488-0.09V331.15z"/>
					<path style="fill:#F4D793;" d="M320.697,331.15h-0.488v11.151c0.165-0.013,0.326-0.026,0.488-0.039V331.15z"/>
					<path style="fill:#F4D793;" d="M331.805,331.15h-0.488v9.677c0.174-0.048,0.339-0.096,0.488-0.145V331.15z"/>
					<path style="fill:#F4D793;" d="M324.399,331.15h-0.488v10.826c0.168-0.017,0.324-0.034,0.488-0.052V331.15z"/>
					<path style="fill:#F4D793;" d="M307.345,331.15h-0.488v11.833c0.164-0.005,0.324-0.011,0.488-0.016V331.15z"/>
					<path style="fill:#F4D793;" d="M302.678,331.15h-0.488v11.948c0.163-0.003,0.326-0.006,0.488-0.01V331.15z"/>
					<path style="fill:#F4D793;" d="M312.012,331.15h-0.488v11.66c0.162-0.007,0.327-0.014,0.488-0.021V331.15z"/>
					<path style="fill:#F4D793;" d="M316.679,331.15h-0.488v11.422c0.163-0.009,0.327-0.019,0.488-0.029V331.15z"/>
				</g>
				<path style="fill:#DA8928;" d="M333.039,331.15c0,1.837-17.882,3.327-39.941,3.327c-22.059,0-39.941-1.489-39.941-3.327
					c0-1.837,17.882-3.326,39.941-3.326C315.158,327.824,333.039,329.313,333.039,331.15z"/>
			</g>
		</g>
	</g>
	<g>
		<path style="fill:#131637;" d="M149.089,377.704c0,0-1.83,6.635-2.174,11.097c0,0,2.974,0.801,5.606,0
			c2.631-0.801,11.097,2.86,15.329-0.114l-9.91-5.927c-1.467-0.878-2.434-2.396-2.608-4.096l-0.18-1.759L149.089,377.704z"/>
		<path style="fill:#131637;" d="M98.771,370.822c0,0-3.583,5.877-5.139,10.072c0,0,2.64,1.587,5.39,1.54
			c2.75-0.047,9.884,5.799,14.771,4.102l-7.9-8.422c-1.169-1.247-1.682-2.973-1.382-4.656l0.31-1.741L98.771,370.822z"/>
		<path style="fill:#131637;" d="M157.023,252.824l5.216,64.902c0.098,1.214,0.1,2.435,0.006,3.65l-4.435,57.51
			c0,0-6.101,0.915-10.372,0l-3.508-58.725l-12.412-65.072l6.472-19.147L157.023,252.824z"/>
		<path style="fill:#10163E;" d="M138.12,289.709l-6.604-34.621l6.472-19.147l19.035,16.882l0.96,11.942
			C152.867,267.393,142.495,274.432,138.12,289.709z"/>
		<path style="fill:#131637;" d="M140.713,252.93l-12.818,63.837c-0.24,1.195-0.573,2.368-0.997,3.511l-20.066,54.078
			c0,0-6.118-0.796-9.973-2.85l12.763-57.429l5.945-65.978l11.484-16.632L140.713,252.93z"/>
		<g>
			<path style="fill:#FF9DA4;" d="M204.415,200.648l3.702-5.08c0,0,0.078-1.722,0.54-4.053l-1.042-5.292l0.837,0.12
				c0.664,0.095,1.218,0.555,1.434,1.19l1.124,3.322l6.881-8.668c0.238-0.3,0.662-0.377,0.99-0.18l0,0
				c0.34,0.205,0.467,0.636,0.291,0.992l-3.043,6.152l3.604,2.656c0.669,0.493,0.892,1.38,0.559,2.141
				c-0.792,1.807-2.676,4.801-6.555,5.156l-2.328,5.268L204.415,200.648z"/>
			<path style="fill:none;stroke:#FF6473;stroke-width:0.4646;stroke-miterlimit:10;" d="M211.756,191.022
				c0,0,2.582,2.702,0.482,6.13"/>
			<path style="fill:none;stroke:#FF6473;stroke-width:0.4646;stroke-miterlimit:10;" d="M216.129,189.15l-1.717,2.813
				c-0.463,0.759-0.271,1.746,0.444,2.275l3.532,2.615"/>
			
				<line style="fill:none;stroke:#FF6473;stroke-width:0.4646;stroke-miterlimit:10;" x1="217.595" y1="190.611" x2="215.147" y2="194.454"/>
			
				<line style="fill:none;stroke:#FF6473;stroke-width:0.4646;stroke-miterlimit:10;" x1="219.228" y1="191.906" x2="216.779" y2="195.749"/>
		</g>
		<polygon style="fill:#F8E8B5;" points="203.254,200.117 205.557,196.627 214.16,201.408 212.408,205.456 		"/>
		<path style="fill:#131637;" d="M168.182,192.263c5.491,4.233,19.219,26.54,19.219,26.54l16.016-19.791l10.182,5.72
			c0,0-8.008,18.673-13.842,28.785c-5.834,10.111-19.677,12.361-26.083,0.27c-5.415-10.22-13.614-28.482-13.614-28.482
			L168.182,192.263z"/>
		<path style="fill:#10163E;" d="M190.432,224.066l-3.032-5.263l4.52-5.585C191.148,218.175,190.432,224.066,190.432,224.066z"/>
		<path style="fill:#10163E;" d="M169.286,225.076c-3.389-6.972-6.79-14.396-8.347-17.825l5.335-9.192
			C166.275,198.059,168.103,218.689,169.286,225.076L169.286,225.076z"/>
		<path style="fill:#131637;" d="M139.728,258.892l-1.907-13.891l-3.824,13.707c-0.748,2.681-3.457,4.327-6.179,3.745
			c-10.66-2.275-17.293-6.814-17.293-6.814l7.017-19.372l-3.356-48.524c10.982-4.29,25.956-5.624,25.956-5.624
			c18.545,2.021,28.041,10.143,28.041,10.143l-12.203,48.581l5.033,18.781c-5.456,2.145-10.676,3.312-15.554,3.804
			C142.642,263.713,140.113,261.696,139.728,258.892z"/>
		<path style="fill:#FFFFFF;" d="M134.736,184.941l3.114-4.769l8.979,1.002l2.019,5.141c0,0-4.004,32.947-10.182,52.738
			C132.604,219.604,134.736,184.941,134.736,184.941z"/>
		<polyline style="fill:none;stroke:#AC9C6B;stroke-width:0.4068;stroke-miterlimit:10;" points="140.68,189.531 138.02,191.104 
			135.457,185.818 		"/>
		<polyline style="fill:none;stroke:#AC9C6B;stroke-width:0.4068;stroke-miterlimit:10;" points="145.062,190.428 146.141,191.879 
			147.971,189.288 		"/>
		<path style="fill:#FF563D;" d="M134.923,215.958c2.333-8.568,5.608-20.584,6.374-23.314l-1.157-3.05l2.262-1.324
			c0.51-0.298,1.162-0.164,1.512,0.312l1.443,1.965l-1.587,2.46c0,0-0.143,15.025-0.507,27.529
			c-1.34,6.528-2.885,13.029-4.598,18.517C136.61,232.455,135.497,224.109,134.923,215.958z"/>
		<path style="fill:none;stroke:#2E1685;stroke-width:0.5;stroke-linecap:round;stroke-miterlimit:10;" d="M149.854,183.866
			l7.169,10.028l-7.643,13.505l4.118,7.329c0,0-9.704,19.293-13.357,24.324"/>
		<path style="fill:none;stroke:#2E1685;stroke-width:0.5;stroke-linecap:round;stroke-miterlimit:10;" d="M133.462,182.971
			l-7.38,7.881l5.034,15.253l-5.606,5.354c0,0,8.862,21.415,12.012,27.593"/>
		<polygon style="fill:#10163E;" points="121.753,198.059 123.22,203.473 117.541,236.268 115.794,211.011 		"/>
		<g>
			
				<linearGradient id="SVGID_00000103243465769925085210000000568225259682881181_" gradientUnits="userSpaceOnUse" x1="95.1917" y1="273.3652" x2="138.4152" y2="231.482">
				<stop  offset="0.0306" style="stop-color:#DA8928"/>
				<stop  offset="1" style="stop-color:#EECD5A"/>
			</linearGradient>
			<circle style="fill:url(#SVGID_00000103243465769925085210000000568225259682881181_);" cx="119.744" cy="249.575" r="22.774"/>
			<path style="fill:#DA8928;" d="M100.962,249.575c0,10.373,8.409,18.782,18.782,18.782s18.782-8.409,18.782-18.782
				c0-10.373-8.409-18.782-18.782-18.782S100.962,239.202,100.962,249.575z M102.654,249.575c0-9.438,7.651-17.089,17.09-17.089
				c9.439,0,17.089,7.651,17.089,17.089s-7.651,17.089-17.089,17.089C110.305,266.664,102.654,259.013,102.654,249.575z"/>
			<g>
				<path style="fill:#DA8928;" d="M126.164,252.907c0,1.356-0.49,2.445-1.471,3.268c-0.981,0.823-2.353,1.315-4.118,1.477v2.622
					h-1.752v-2.571c-2.08-0.043-3.905-0.409-5.474-1.1v-3.377c0.742,0.367,1.635,0.691,2.68,0.972
					c1.045,0.281,1.976,0.448,2.795,0.499v-3.965l-0.857-0.332c-1.688-0.665-2.884-1.388-3.587-2.168
					c-0.704-0.78-1.055-1.746-1.055-2.897c0-1.236,0.484-2.253,1.452-3.05c0.968-0.797,2.317-1.281,4.048-1.452v-1.957h1.752v1.906
					c1.952,0.085,3.718,0.477,5.295,1.177l-1.202,2.993c-1.33-0.546-2.694-0.878-4.093-0.997v3.773
					c1.663,0.639,2.846,1.194,3.549,1.663c0.703,0.469,1.219,0.985,1.548,1.548C126,251.5,126.164,252.156,126.164,252.907z
					 M117.173,245.335c0,0.375,0.13,0.684,0.39,0.927c0.26,0.243,0.68,0.493,1.26,0.748v-3.006
					C117.723,244.167,117.173,244.61,117.173,245.335z M122.314,253.098c0-0.358-0.145-0.661-0.435-0.908
					c-0.29-0.247-0.725-0.503-1.305-0.768v3.185C121.735,254.411,122.314,253.908,122.314,253.098z"/>
			</g>
			<g>
				<path style="fill:#DA8928;" d="M130.532,234.205l2.347-3.23c0.166,0.118,0.335,0.232,0.498,0.354l-2.348,3.232
					C130.866,234.439,130.699,234.323,130.532,234.205z"/>
				<path style="fill:#DA8928;" d="M127.998,232.702l1.812-3.557c0.182,0.09,0.363,0.183,0.543,0.278l-1.813,3.557
					C128.362,232.885,128.181,232.792,127.998,232.702z"/>
				<path style="fill:#DA8928;" d="M138.241,246.336l3.944-0.624c0.034,0.2,0.068,0.4,0.097,0.602l-3.945,0.625
					C138.309,246.737,138.276,246.536,138.241,246.336z"/>
				<path style="fill:#DA8928;" d="M122.38,230.981l0.625-3.945c0.202,0.029,0.402,0.063,0.602,0.097l-0.625,3.944
					C122.782,231.042,122.582,231.01,122.38,230.981z"/>
				<path style="fill:#DA8928;" d="M125.258,231.617l1.235-3.8c0.195,0.06,0.386,0.129,0.578,0.194l-1.234,3.798
					C125.644,231.743,125.453,231.677,125.258,231.617z"/>
				<path style="fill:#DA8928;" d="M132.803,236.083l2.823-2.823c0.146,0.142,0.29,0.286,0.432,0.432l-2.823,2.823
					C133.093,236.369,132.95,236.225,132.803,236.083z"/>
				<path style="fill:#DA8928;" d="M137.509,243.482l3.798-1.234c0.065,0.192,0.134,0.383,0.194,0.578l-3.8,1.235
					C137.641,243.866,137.575,243.674,137.509,243.482z"/>
				<path style="fill:#DA8928;" d="M134.757,238.29l3.232-2.348c0.122,0.163,0.237,0.331,0.354,0.498l-3.23,2.347
					C134.996,238.619,134.879,238.452,134.757,238.29z"/>
				<path style="fill:#DA8928;" d="M119.744,230.793c-0.102,0-0.203,0.006-0.305,0.008v-3.993c0.102-0.001,0.203-0.008,0.305-0.008
					c0.102,0,0.203,0.007,0.305,0.008v3.993C119.947,230.799,119.846,230.793,119.744,230.793z"/>
				<path style="fill:#DA8928;" d="M136.338,240.777l3.557-1.813c0.095,0.18,0.188,0.36,0.278,0.543l-3.557,1.813
					C136.526,241.137,136.433,240.957,136.338,240.777z"/>
				<path style="fill:#DA8928;" d="M113.651,231.809l-1.234-3.798c0.193-0.066,0.383-0.134,0.578-0.194l1.234,3.8
					C114.034,231.677,113.843,231.743,113.651,231.809z"/>
				<path style="fill:#DA8928;" d="M116.505,231.077l-0.625-3.944c0.2-0.034,0.4-0.068,0.602-0.097l0.625,3.945
					C116.905,231.01,116.705,231.042,116.505,231.077z"/>
				<path style="fill:#DA8928;" d="M102.871,241.32l-3.557-1.813c0.09-0.182,0.183-0.363,0.278-0.543l3.557,1.813
					C103.054,240.957,102.961,241.137,102.871,241.32z"/>
				<path style="fill:#DA8928;" d="M101.786,244.061l-3.8-1.235c0.06-0.195,0.129-0.386,0.194-0.578l3.798,1.234
					C101.912,243.674,101.846,243.866,101.786,244.061z"/>
				<path style="fill:#DA8928;" d="M101.15,246.939l-3.945-0.625c0.029-0.202,0.063-0.402,0.097-0.602l3.944,0.624
					C101.211,246.536,101.178,246.737,101.15,246.939z"/>
				<path style="fill:#DA8928;" d="M104.374,238.786l-3.23-2.347c0.118-0.166,0.233-0.335,0.354-0.498l3.232,2.348
					C104.608,238.452,104.491,238.619,104.374,238.786z"/>
				<path style="fill:#DA8928;" d="M110.946,232.98l-1.813-3.557c0.18-0.095,0.36-0.188,0.543-0.278l1.813,3.557
					C111.306,232.792,111.125,232.885,110.946,232.98z"/>
				<path style="fill:#DA8928;" d="M106.252,236.515l-2.823-2.823c0.142-0.146,0.286-0.29,0.432-0.432l2.823,2.823
					C106.538,236.225,106.394,236.369,106.252,236.515z"/>
				<path style="fill:#DA8928;" d="M138.525,249.575c0-0.102-0.006-0.203-0.008-0.305h3.993c0.001,0.102,0.008,0.203,0.008,0.305
					s-0.007,0.203-0.008,0.305h-3.993C138.519,249.778,138.525,249.677,138.525,249.575z"/>
				<path style="fill:#DA8928;" d="M108.459,234.562l-2.348-3.232c0.163-0.122,0.331-0.237,0.497-0.354l2.347,3.23
					C108.788,234.323,108.621,234.439,108.459,234.562z"/>
				<path style="fill:#DA8928;" d="M101.246,252.813l-3.944,0.625c-0.034-0.2-0.068-0.4-0.097-0.602l3.945-0.625
					C101.178,252.413,101.211,252.613,101.246,252.813z"/>
				<path style="fill:#DA8928;" d="M108.955,264.944l-2.347,3.23c-0.166-0.118-0.334-0.232-0.497-0.354l2.348-3.232
					C108.621,264.71,108.788,264.827,108.955,264.944z"/>
				<path style="fill:#DA8928;" d="M106.684,263.066l-2.823,2.823c-0.146-0.142-0.29-0.286-0.432-0.432l2.823-2.823
					C106.394,262.781,106.538,262.924,106.684,263.066z"/>
				<path style="fill:#DA8928;" d="M111.489,266.447l-1.813,3.557c-0.182-0.09-0.363-0.183-0.543-0.278l1.813-3.557
					C111.125,266.264,111.306,266.357,111.489,266.447z"/>
				<path style="fill:#DA8928;" d="M114.23,267.532l-1.235,3.8c-0.195-0.06-0.386-0.129-0.578-0.194l1.234-3.797
					C113.843,267.406,114.035,267.472,114.23,267.532z"/>
				<path style="fill:#DA8928;" d="M104.731,260.859l-3.232,2.348c-0.122-0.163-0.237-0.331-0.354-0.498l3.23-2.347
					C104.491,260.53,104.608,260.697,104.731,260.859z"/>
				<path style="fill:#DA8928;" d="M101.978,255.668l-3.798,1.234c-0.065-0.192-0.134-0.384-0.194-0.578l3.8-1.235
					C101.846,255.284,101.912,255.476,101.978,255.668z"/>
				<path style="fill:#DA8928;" d="M96.977,249.27h3.993c-0.002,0.102-0.008,0.203-0.008,0.305s0.006,0.203,0.008,0.305h-3.993
					c-0.001-0.102-0.008-0.203-0.008-0.305S96.975,249.372,96.977,249.27z"/>
				<path style="fill:#DA8928;" d="M103.149,258.372l-3.557,1.813c-0.095-0.18-0.188-0.36-0.278-0.542l3.557-1.813
					C102.961,258.012,103.054,258.193,103.149,258.372z"/>
				<path style="fill:#DA8928;" d="M117.107,268.168l-0.625,3.945c-0.202-0.029-0.402-0.063-0.602-0.097l0.625-3.944
					C116.705,268.107,116.905,268.14,117.107,268.168z"/>
				<path style="fill:#DA8928;" d="M138.337,252.211l3.945,0.625c-0.029,0.202-0.063,0.402-0.097,0.602l-3.944-0.625
					C138.276,252.613,138.309,252.413,138.337,252.211z"/>
				<path style="fill:#DA8928;" d="M136.616,257.829l3.557,1.813c-0.09,0.182-0.183,0.363-0.278,0.542l-3.557-1.813
					C136.433,258.193,136.526,258.012,136.616,257.829z"/>
				<path style="fill:#DA8928;" d="M133.235,262.634l2.823,2.823c-0.142,0.146-0.286,0.29-0.432,0.432l-2.823-2.823
					C132.949,262.924,133.093,262.781,133.235,262.634z"/>
				<path style="fill:#DA8928;" d="M119.744,268.356c0.102,0,0.203-0.006,0.305-0.008v3.993c-0.102,0.001-0.203,0.008-0.305,0.008
					c-0.102,0-0.203-0.006-0.305-0.008v-3.993C119.54,268.35,119.641,268.356,119.744,268.356z"/>
				<path style="fill:#DA8928;" d="M137.701,255.089l3.8,1.235c-0.06,0.195-0.129,0.386-0.194,0.578l-3.798-1.234
					C137.575,255.476,137.641,255.284,137.701,255.089z"/>
				<path style="fill:#DA8928;" d="M135.113,260.363l3.23,2.347c-0.118,0.166-0.232,0.335-0.354,0.498l-3.232-2.348
					C134.879,260.697,134.996,260.53,135.113,260.363z"/>
				<path style="fill:#DA8928;" d="M122.982,268.072l0.625,3.944c-0.2,0.034-0.4,0.068-0.602,0.097l-0.625-3.945
					C122.582,268.14,122.782,268.107,122.982,268.072z"/>
				<path style="fill:#DA8928;" d="M125.837,267.34l1.234,3.797c-0.192,0.065-0.384,0.134-0.578,0.194l-1.235-3.8
					C125.453,267.472,125.644,267.406,125.837,267.34z"/>
				<path style="fill:#DA8928;" d="M128.541,266.169l1.813,3.557c-0.18,0.095-0.36,0.188-0.542,0.278l-1.813-3.557
					C128.181,266.357,128.362,266.264,128.541,266.169z"/>
				<path style="fill:#DA8928;" d="M131.029,264.588l2.348,3.232c-0.163,0.122-0.331,0.237-0.498,0.354l-2.347-3.23
					C130.699,264.827,130.866,264.71,131.029,264.588z"/>
			</g>
		</g>
		<path style="fill:#FF9DA4;" d="M114.23,260.073l2.248,4.703c0,0-0.391,7.74,3.154,9.448c0,0,1.518,0.223,1.855-0.716
			c1.578,0.895,2.217-0.313,2.217-0.313s1.967,0.331,2.16-0.805c1.262,0.592,2.462-0.076,2.606-0.902
			c0.139-0.793-3.215-1.547-3.63-5.228c0,0,1.826-0.301,3.142,1.016c0.329,0.329,0.901,0.294,1.23-0.035l0.456-0.456
			c0,0-2.456-3.597-5.801-3.773c-0.554-0.029-1.063-0.313-1.329-0.8l-2.489-4.557L114.23,260.073z"/>
		<path style="fill:#131637;" d="M149.725,167.171c5.072-0.305,4.526-6.328,1.335-7.665c-1.568-0.657-2.441-0.089-2.908,0.545
			c-0.458,0.622-1.253,0.892-2.017,0.776c-1.821-0.276-4.843-0.543-6.668,0.319c-2.745,1.297-1.868,3.775-1.868,3.775
			s-2.005,0.485-2.135,2.25c-0.267,3.623,3.89,6.292,3.89,6.292L149.725,167.171z"/>
		<path style="fill:#FF9DA4;" d="M149.725,167.171l-0.572,3.585c0,0,1.061,2.149,0.572,4.462c-0.562,2.66-2.555,3.318-2.555,3.318
			l-0.633,4.895c-0.13,1.007-0.696,1.906-1.547,2.459L143.281,187l-3.343-2.426c-1.356-0.984-1.971-2.697-1.552-4.319l1.462-5.649
			c0,0-1.716-0.343-2.059-1.869c-0.343-1.525,0.991-3.165,2.707-1.258c0,0,0.801-2.097-0.076-4.309
			c2.974,1.373,5.834,0.801,2.822-1.64C147.361,167.629,149.725,167.171,149.725,167.171z"/>
		<path style="fill:#FF6473;" d="M147.17,178.535c-1.468,0.715-4.271,0.086-5.529-1.287c0,0,0.392,3.631,5.23,3.603L147.17,178.535z
			"/>
		<path style="fill:#131637;" d="M114.185,187.744c-4.796,2.354-13.453,18.67-19.066,31.364c-2.589,5.855-2.112,12.612,1.233,18.07
			l16.8,27.413l9.738-4.966l-11.094-30.869c0,0,8.206-17.846,10.789-23.223C125.168,200.156,121.507,187.801,114.185,187.744z"/>
	</g>
</g>
</svg>
