<svg xmlns="http://www.w3.org/2000/svg" viewBox="0 0 752.12 962.44"><defs><style>.cls-1{fill:#ed6424;}</style></defs><title>vedia partner logo</title><g id="Layer_2" data-name="Layer 2"><g id="Layer_1-2" data-name="Layer 1"><path class="cls-1" d="M129.79,0h496.4V207.93H129.79V0ZM45.87,331c24.72,44.2,87.48,156.22,139.55,249.13l94.79,169.16h96.65l96.66-.19L612.14,501.65c76.24-136,139-248,139.18-248.95.37-.94-45-1.69-104-1.69H542.83L460.6,429c-45.15,98-83,177.76-83.92,177.58-.94-.38-38.59-80.36-83.74-177.58L211.09,252,106,251.39.91,251ZM752.12,810.24H0v152.2H752.12ZM66.48,856.14l-8.9,67.19H31L21,856.14H39.37q3.21,27.76,4.59,47,1.35-19.43,2.87-34.49l1.22-12.49Zm11.44,0h29.14v13.44H95.4v12.74h10.91v12.79H95.4v14.77h12.82v13.45H77.92Zm43.82,0h13.08q12.65,0,17.12,1.16a13.1,13.1,0,0,1,6.78,3.82,12.11,12.11,0,0,1,2.91,5.91,90.53,90.53,0,0,1,.58,12.8v23.54q0,9-.85,12.09a9.13,9.13,0,0,1-3,4.78,12.34,12.34,0,0,1-5.23,2.41,47.8,47.8,0,0,1-9.38.68h-22Zm17.48,11.49v44.2q3.76,0,4.64-1.51c.58-1,.88-3.76.88-8.24V876a34,34,0,0,0-.3-5.86,2.8,2.8,0,0,0-1.32-1.89A8.69,8.69,0,0,0,139.22,867.63Zm55.48-11.49v67.19H177.22V856.14ZM251,885.4H233.54V873.72q0-5.1-.56-6.36a2.42,2.42,0,0,0-2.47-1.26c-1.44,0-2.36.51-2.74,1.53s-.58,3.24-.58,6.64v31.21q0,4.9.58,6.4a3,3,0,0,0,5.17,0q.6-1.5.6-7v-8.45H251V899q0,10.44-1.47,14.8T243,921.46a22.31,22.31,0,0,1-12.43,3.28q-7.68,0-12.66-2.78a13.51,13.51,0,0,1-6.6-7.7q-1.62-4.92-1.62-14.8V879.83a87.53,87.53,0,0,1,.5-10.89,15.18,15.18,0,0,1,3-7,16.56,16.56,0,0,1,6.85-5.3,24.83,24.83,0,0,1,10.06-1.92q7.72,0,12.74,3a14.3,14.3,0,0,1,6.6,7.44Q251,869.61,251,879Zm45-29.26,10,67.19H288.12l-.94-12.08h-6.25l-1.05,12.08H261.81l8.92-67.19Zm-9.26,43.2q-1.32-11.42-2.66-28.22-2.67,19.3-3.35,28.22Zm54.2-43.2h17.6a41.21,41.21,0,0,1,11,1.12,12.23,12.23,0,0,1,5.77,3.23,11.1,11.1,0,0,1,2.61,5.13,45.58,45.58,0,0,1,.69,9.32v5.85c0,4.29-.44,7.41-1.33,9.38a9.1,9.1,0,0,1-4.88,4.52,23,23,0,0,1-9.27,1.58H358.4v27.06H340.92Zm17.48,11.49v17.1c.49,0,.92,0,1.28,0a4,4,0,0,0,3.34-1.18c.63-.79.94-2.43.94-4.92v-5.52c0-2.29-.36-3.79-1.08-4.48S360.67,867.63,358.4,867.63Zm61.78-11.49,10,67.19H412.31l-.94-12.08h-6.25l-1.05,12.08H386l8.91-67.19Zm-9.26,43.2q-1.34-11.42-2.66-28.22-2.68,19.3-3.36,28.22Zm30.72-43.2H454q12.36,0,16.74,1a11.53,11.53,0,0,1,7.14,4.88q2.76,3.91,2.76,12.51,0,7.85-1.95,10.54T471,888.26q5.19,1.29,7,3.44a10.43,10.43,0,0,1,2.23,4c.29,1.2.43,4.52.43,9.94v17.72H464.42V901c0-3.6-.28-5.82-.85-6.68s-2.05-1.29-4.46-1.29v30.3H441.64Zm17.47,11.49v14.94a7.7,7.7,0,0,0,4.13-.81q1.18-.79,1.18-5.25v-3.69c0-2.13-.38-3.53-1.14-4.19S461.13,867.63,459.11,867.63Zm72-11.49v13.44H520.74v53.75H503.26V869.58H492.93V856.14Zm51.5,0v67.19H567.3l-9.09-30.55v30.55H543.6V856.14h14.61L568,886.39V856.14Zm15.51,0h29.14v13.44H615.6v12.74h10.91v12.79H615.6v14.77h12.82v13.45h-30.3Zm43.82,0h12.37q12.38,0,16.75,1A11.53,11.53,0,0,1,678.2,862q2.76,3.91,2.76,12.51,0,7.85-2,10.54t-7.68,3.24q5.19,1.29,7,3.44a10.26,10.26,0,0,1,2.22,4c.29,1.2.44,4.52.44,9.94v17.72H664.73V901c0-3.6-.28-5.82-.85-6.68s-2.06-1.29-4.46-1.29v30.3H641.94Zm17.48,11.49v14.94a7.7,7.7,0,0,0,4.13-.81q1.19-.79,1.18-5.25v-3.69c0-2.13-.38-3.53-1.14-4.19S661.44,867.63,659.42,867.63Zm73.82,8.84H717v-5q0-3.48-.63-4.44a2.28,2.28,0,0,0-2.07-.95,2.66,2.66,0,0,0-2.39,1.28,7.48,7.48,0,0,0-.81,3.91,11.19,11.19,0,0,0,.91,5.07q.87,1.7,4.94,4.1,11.67,6.93,14.7,11.37t3,14.32q0,7.17-1.68,10.58t-6.5,5.71a25.76,25.76,0,0,1-11.21,2.3,25.08,25.08,0,0,1-12-2.65q-5-2.67-6.49-6.77t-1.54-11.66v-4.4h16.23v8.17c0,2.52.23,4.14.68,4.86a2.66,2.66,0,0,0,2.43,1.08,2.84,2.84,0,0,0,2.59-1.37,7.78,7.78,0,0,0,.86-4.07q0-5.92-1.62-7.76t-8.18-6.1a80.93,80.93,0,0,1-8.63-6.27,14.75,14.75,0,0,1-3.51-5.39,23.7,23.7,0,0,1-1.39-8.8q0-7.73,2-11.29a13.29,13.29,0,0,1,6.37-5.58,25.49,25.49,0,0,1,10.63-2,27.83,27.83,0,0,1,11.6,2.19q4.78,2.21,6.35,5.55t1.55,11.35Z"/></g></g></svg>